<svg xmlns="http://www.w3.org/2000/svg" xmlns:xlink="http://www.w3.org/1999/xlink" viewBox="0 0 332.34 323.14"><defs><style>.cls-1,.cls-2,.cls-3,.cls-40{fill:none;stroke-miterlimit:10;}.cls-1{stroke:url(#Dégradé_sans_nom_4);}.cls-2,.cls-3{opacity:0.2;}.cls-2{stroke:url(#Dégradé_sans_nom_4-2);}.cls-3{stroke:url(#Dégradé_sans_nom_4-3);}.cls-4{fill:#e2e2e2;}.cls-5,.cls-6{fill:#d3d3d3;}.cls-5{opacity:0.15;}.cls-7{fill:url(#Dégradé_sans_nom_81);}.cls-8{fill:url(#Dégradé_sans_nom_4-4);}.cls-9{fill:url(#Dégradé_sans_nom_96);}.cls-10{fill:#edeff2;}.cls-11,.cls-30{fill:#fff;}.cls-12{fill:url(#Dégradé_sans_nom_84);}.cls-13{fill:url(#Dégradé_sans_nom_103);}.cls-14{fill:#c2d1e5;}.cls-15{fill:#dae1eb;}.cls-16{fill:#a8b4c1;opacity:0.4;}.cls-17{fill:#9aa5b2;}.cls-18{fill:#192643;}.cls-19{fill:url(#Dégradé_sans_nom_4-5);}.cls-20{fill:url(#Dégradé_sans_nom_4-6);}.cls-21{fill:url(#Dégradé_sans_nom_4-7);}.cls-22{fill:url(#Dégradé_sans_nom_4-8);}.cls-23{fill:url(#Dégradé_sans_nom_4-9);}.cls-24{fill:url(#Dégradé_sans_nom_4-10);}.cls-25{fill:url(#Dégradé_sans_nom_4-11);}.cls-26{fill:url(#Dégradé_sans_nom_4-12);}.cls-27{fill:url(#Dégradé_sans_nom_4-13);}.cls-28{fill:url(#Dégradé_sans_nom_4-14);}.cls-29{fill:url(#Dégradé_sans_nom_4-15);}.cls-30{opacity:0.16;}.cls-31{fill:url(#Dégradé_sans_nom_4-16);}.cls-32{fill:url(#Dégradé_sans_nom_4-17);}.cls-33{fill:url(#Dégradé_sans_nom_4-18);}.cls-34{fill:url(#Dégradé_sans_nom_4-19);}.cls-35{fill:url(#Dégradé_sans_nom_4-20);}.cls-36{fill:url(#Dégradé_sans_nom_4-21);}.cls-37{fill:url(#Dégradé_sans_nom_14);}.cls-38{fill:url(#Dégradé_sans_nom_109);}.cls-39{fill:url(#Dégradé_sans_nom_4-22);}.cls-40{stroke-linecap:round;stroke:url(#Dégradé_sans_nom_4-23);}.cls-41{fill:url(#Dégradé_sans_nom_4-24);}.cls-42{fill:url(#Dégradé_sans_nom_4-25);}.cls-43{fill:url(#Dégradé_sans_nom_4-26);}.cls-44{fill:#00ace2;}</style><linearGradient id="Dégradé_sans_nom_4" x1="0.03" y1="186.71" x2="206.61" y2="186.71" gradientTransform="matrix(-1, 0, 0, 1, 332.37, 0)" gradientUnits="userSpaceOnUse"><stop offset="0.07" stop-color="#292c68"/><stop offset="1" stop-color="#00abe1"/></linearGradient><linearGradient id="Dégradé_sans_nom_4-2" x1="29.37" y1="215.71" x2="332.37" y2="215.71" xlink:href="#Dégradé_sans_nom_4"/><linearGradient id="Dégradé_sans_nom_4-3" x1="123.64" y1="264.48" x2="181.66" y2="264.48" xlink:href="#Dégradé_sans_nom_4"/><linearGradient id="Dégradé_sans_nom_81" x1="146.42" y1="99.5" x2="320.28" y2="99.5" gradientTransform="matrix(-1, 0, 0, 1, 332.37, 0)" gradientUnits="userSpaceOnUse"><stop offset="0" stop-color="#f2f3f4"/><stop offset="1" stop-color="#e0e0e0"/></linearGradient><linearGradient id="Dégradé_sans_nom_4-4" x1="151.34" y1="98.47" x2="315.92" y2="98.47" xlink:href="#Dégradé_sans_nom_4"/><linearGradient id="Dégradé_sans_nom_96" x1="34.65" y1="184.9" x2="320.28" y2="184.9" gradientTransform="matrix(-1, 0, 0, 1, 332.37, 0)" gradientUnits="userSpaceOnUse"><stop offset="0" stop-color="#fff"/><stop offset="1" stop-color="#e0e0e0"/></linearGradient><linearGradient id="Dégradé_sans_nom_84" x1="84.86" y1="195.83" x2="197.87" y2="195.83" gradientTransform="matrix(-1, 0, 0, 1, 332.37, 0)" gradientUnits="userSpaceOnUse"><stop offset="0" stop-color="#ededed"/><stop offset="1" stop-color="#cfd0d1"/></linearGradient><linearGradient id="Dégradé_sans_nom_103" x1="143.12" y1="156.85" x2="320.28" y2="156.85" gradientTransform="matrix(-1, 0, 0, 1, 332.37, 0)" gradientUnits="userSpaceOnUse"><stop offset="0" stop-color="#fff"/><stop offset="0.16" stop-color="#efefef"/><stop offset="0.39" stop-color="#dfdfdf"/><stop offset="0.65" stop-color="#d6d6d6"/><stop offset="1" stop-color="#d3d3d3"/></linearGradient><linearGradient id="Dégradé_sans_nom_4-5" x1="11.32" y1="270.75" x2="112.99" y2="270.75" xlink:href="#Dégradé_sans_nom_4"/><linearGradient id="Dégradé_sans_nom_4-6" x1="27.8" y1="259.36" x2="37.63" y2="259.36" xlink:href="#Dégradé_sans_nom_4"/><linearGradient id="Dégradé_sans_nom_4-7" x1="34.65" y1="255.85" x2="44.48" y2="255.85" xlink:href="#Dégradé_sans_nom_4"/><linearGradient id="Dégradé_sans_nom_4-8" x1="41.55" y1="252.6" x2="51.38" y2="252.6" xlink:href="#Dégradé_sans_nom_4"/><linearGradient id="Dégradé_sans_nom_4-9" x1="29.26" y1="266.33" x2="39.09" y2="266.33" xlink:href="#Dégradé_sans_nom_4"/><linearGradient id="Dégradé_sans_nom_4-10" x1="36.17" y1="263.09" x2="45.99" y2="263.09" xlink:href="#Dégradé_sans_nom_4"/><linearGradient id="Dégradé_sans_nom_4-11" x1="43.01" y1="259.58" x2="52.84" y2="259.58" xlink:href="#Dégradé_sans_nom_4"/><linearGradient id="Dégradé_sans_nom_4-12" x1="36.95" y1="269.95" x2="46.77" y2="269.95" xlink:href="#Dégradé_sans_nom_4"/><linearGradient id="Dégradé_sans_nom_4-13" x1="43.85" y1="266.7" x2="53.68" y2="266.7" xlink:href="#Dégradé_sans_nom_4"/><linearGradient id="Dégradé_sans_nom_4-14" x1="50.69" y1="263.19" x2="60.52" y2="263.19" xlink:href="#Dégradé_sans_nom_4"/><linearGradient id="Dégradé_sans_nom_4-15" x1="57.6" y1="259.94" x2="67.42" y2="259.94" xlink:href="#Dégradé_sans_nom_4"/><linearGradient id="Dégradé_sans_nom_4-16" x1="71.87" y1="287.75" x2="81.69" y2="287.75" xlink:href="#Dégradé_sans_nom_4"/><linearGradient id="Dégradé_sans_nom_4-17" x1="78.77" y1="284.5" x2="88.59" y2="284.5" xlink:href="#Dégradé_sans_nom_4"/><linearGradient id="Dégradé_sans_nom_4-18" x1="85.61" y1="280.99" x2="95.44" y2="280.99" xlink:href="#Dégradé_sans_nom_4"/><linearGradient id="Dégradé_sans_nom_4-19" x1="92.51" y1="277.74" x2="102.34" y2="277.74" xlink:href="#Dégradé_sans_nom_4"/><linearGradient id="Dégradé_sans_nom_4-20" x1="44.13" y1="274.07" x2="53.96" y2="274.07" xlink:href="#Dégradé_sans_nom_4"/><linearGradient id="Dégradé_sans_nom_4-21" x1="51.04" y1="270.82" x2="60.86" y2="270.82" xlink:href="#Dégradé_sans_nom_4"/><linearGradient id="Dégradé_sans_nom_14" x1="25.91" y1="257.62" x2="69.08" y2="232.69" gradientTransform="matrix(-1, 0, 0, 1, 332.37, 0)" gradientUnits="userSpaceOnUse"><stop offset="0.07" stop-color="#292c68"/><stop offset="0.13" stop-color="#243b76"/><stop offset="0.32" stop-color="#17639c"/><stop offset="0.5" stop-color="#0d82ba"/><stop offset="0.68" stop-color="#0699d0"/><stop offset="0.85" stop-color="#01a6dd"/><stop offset="1" stop-color="#00abe1"/></linearGradient><linearGradient id="Dégradé_sans_nom_109" x1="173.82" y1="116.35" x2="293.02" y2="116.35" gradientTransform="matrix(1, 0, 0, -1, -134.47, 182.56)" gradientUnits="userSpaceOnUse"><stop offset="0" stop-color="#ececec"/><stop offset="1" stop-color="#e0e0e0"/></linearGradient><linearGradient id="Dégradé_sans_nom_4-22" x1="301.26" y1="211.45" x2="308.68" y2="211.45" gradientTransform="matrix(0.89, -0.46, -0.46, -0.89, -144.39, 540.39)" xlink:href="#Dégradé_sans_nom_4"/><linearGradient id="Dégradé_sans_nom_4-23" x1="97.9" y1="267.17" x2="330.03" y2="267.17" xlink:href="#Dégradé_sans_nom_4"/><linearGradient id="Dégradé_sans_nom_4-24" x1="70.31" y1="122.64" x2="79.54" y2="122.64" gradientTransform="matrix(0.85, -0.53, 0.53, 0.85, -50.57, 51.93)" xlink:href="#Dégradé_sans_nom_4"/><linearGradient id="Dégradé_sans_nom_4-25" x1="57.96" y1="119.74" x2="75.19" y2="119.74" gradientTransform="matrix(0.85, -0.53, 0.53, 0.85, -50.57, 51.93)" xlink:href="#Dégradé_sans_nom_4"/><linearGradient id="Dégradé_sans_nom_4-26" x1="54.37" y1="115.83" x2="63.6" y2="115.83" gradientTransform="matrix(0.85, -0.53, 0.53, 0.85, -50.57, 51.93)" xlink:href="#Dégradé_sans_nom_4"/></defs><g id="Calque_2" data-name="Calque 2"><g id="Calque_1-2" data-name="Calque 1"><path class="cls-1" d="M126,163.07l90.14,45.05a14.15,14.15,0,0,0,14.55.31l66.2-34a14.18,14.18,0,0,1,13.5-.29l21.77,8.94"/><path class="cls-2" d="M227.94,162.17l70.13,32.46a8.5,8.5,0,0,1-.11,15l-50.79,26.79L185.4,267.68a14.16,14.16,0,0,1-12.64.08L82.63,223.58a11.31,11.31,0,0,0-10.3.17l-52.5,27.87a14.2,14.2,0,0,1-12.91.19l-6.7-3.3"/><path class="cls-3" d="M186,250.67l20.75,9a2.46,2.46,0,0,1,.16,4.44L181.2,277.5a10.88,10.88,0,0,1-9.71.18l-18.87-9a2.46,2.46,0,0,1,0-4.45l28.89-13.52A5.43,5.43,0,0,1,186,250.67Z"/><ellipse class="cls-4" cx="203.83" cy="258" rx="2.96" ry="1.59"/><ellipse class="cls-4" cx="159.5" cy="261.18" rx="2.96" ry="1.59"/><polygon class="cls-5" points="255.06 195.08 300.59 218.08 133.4 304.44 8.02 241.39 173.11 158.51 255.06 195.08"/><path class="cls-6" d="M12.1,208.26l-1.77-1a4.55,4.55,0,0,1-2.31-4V89.82a10.31,10.31,0,0,1,5.69-9.21L172.51,1.29a12.18,12.18,0,0,1,8.35-.94l2.63.64Z"/><path class="cls-7" d="M186,5.31V112.64L12.1,198.73V90.17a9.39,9.39,0,0,1,5.08-8.34L178.63.84A5,5,0,0,1,186,5.31Z"/><polygon class="cls-8" points="181.04 6.97 181.04 107.08 16.46 189.97 16.46 89.06 181.04 6.97"/><path class="cls-6" d="M12.1,198.73v9.53l107.07,52.35a9.19,9.19,0,0,0,8.24-.07l169.31-86.82a1.87,1.87,0,0,0,1-1.66v-3.42Z"/><path class="cls-9" d="M186,112.64,12.1,198.73l108.07,57.56a7.41,7.41,0,0,0,6.87,0l170.26-87a.79.79,0,0,0,0-1.41Z"/><polygon class="cls-10" points="237.85 144.93 81.96 224.45 42.72 204.05 197.64 125.22 237.85 144.93"/><polygon class="cls-11" points="194.48 123.73 39.24 202.92 33.53 199.9 188.45 121.08 194.48 123.73"/><path class="cls-12" d="M135.19,203.65l38.61,20.51a5.58,5.58,0,0,0,5.12.06L246.84,190a1.23,1.23,0,0,0,0-2.2l-39.59-20.41a4.44,4.44,0,0,0-4,0l-68,34A1.3,1.3,0,0,0,135.19,203.65Z"/><polygon class="cls-13" points="185.96 112.64 189.25 114.28 16.46 201.05 12.1 198.73 185.96 112.64"/><path class="cls-14" d="M53.57,203.74v1.2a.49.49,0,0,1-.27.45l-3.89,2a.67.67,0,0,1-.63,0l-4.64-2.42a.42.42,0,0,1-.22-.38v-1Z"/><path class="cls-15" d="M53.26,204.25l-3.91,2.06a.56.56,0,0,1-.49,0l-4.61-2.23a.57.57,0,0,1,0-1l3.67-1.81a1.64,1.64,0,0,1,1.45,0l3.91,2A.57.57,0,0,1,53.26,204.25Z"/><path class="cls-14" d="M66.12,197.35v1.2a.49.49,0,0,1-.27.45L62,201a.67.67,0,0,1-.63,0l-4.64-2.42a.42.42,0,0,1-.22-.38v-1Z"/><path class="cls-15" d="M65.81,197.86l-3.91,2.06a.56.56,0,0,1-.49,0L56.8,197.7a.57.57,0,0,1,0-1l3.67-1.81a1.64,1.64,0,0,1,1.45,0l3.91,2A.57.57,0,0,1,65.81,197.86Z"/><path class="cls-14" d="M72.31,194.17v1.21a.51.51,0,0,1-.28.45l-3.89,2a.68.68,0,0,1-.62,0l-4.64-2.43a.43.43,0,0,1-.23-.38v-1Z"/><path class="cls-15" d="M72,194.68l-3.91,2.06a.58.58,0,0,1-.5,0L63,194.53a.58.58,0,0,1,0-1l3.67-1.81a1.62,1.62,0,0,1,1.44,0l3.92,2A.57.57,0,0,1,72,194.68Z"/><path class="cls-14" d="M78.39,191v1.21a.51.51,0,0,1-.28.45l-3.89,2a.7.7,0,0,1-.63,0L69,192.2a.44.44,0,0,1-.23-.38v-1Z"/><path class="cls-15" d="M78.07,191.5l-3.9,2.06a.58.58,0,0,1-.5,0l-4.61-2.22a.57.57,0,0,1,0-1l3.66-1.81a1.61,1.61,0,0,1,1.45,0l3.92,2A.57.57,0,0,1,78.07,191.5Z"/><path class="cls-14" d="M84.76,187.86v1.2a.5.5,0,0,1-.27.45l-3.89,2a.7.7,0,0,1-.63,0l-4.64-2.42a.43.43,0,0,1-.22-.38v-1Z"/><path class="cls-15" d="M84.45,188.37l-3.91,2a.53.53,0,0,1-.49,0l-4.61-2.22a.57.57,0,0,1,0-1l3.67-1.81a1.61,1.61,0,0,1,1.45,0l3.91,2A.57.57,0,0,1,84.45,188.37Z"/><path class="cls-14" d="M91,184.68v1.2a.5.5,0,0,1-.28.45l-3.89,2a.7.7,0,0,1-.63,0l-4.63-2.42a.43.43,0,0,1-.23-.38v-1Z"/><path class="cls-15" d="M90.67,185.19l-3.9,2.06a.58.58,0,0,1-.5,0L81.66,185a.57.57,0,0,1,0-1l3.66-1.81a1.61,1.61,0,0,1,1.45,0l3.91,2A.57.57,0,0,1,90.67,185.19Z"/><path class="cls-14" d="M97.41,181.59v1.21a.5.5,0,0,1-.27.45l-3.89,2a.7.7,0,0,1-.63,0L88,182.8a.44.44,0,0,1-.23-.38v-1Z"/><path class="cls-15" d="M97.1,182.1l-3.91,2.06a.58.58,0,0,1-.5,0L88.09,182a.57.57,0,0,1,0-1l3.67-1.81a1.61,1.61,0,0,1,1.45,0l3.91,2A.57.57,0,0,1,97.1,182.1Z"/><path class="cls-14" d="M103.78,178.4v1.2a.5.5,0,0,1-.27.45l-3.89,2a.7.7,0,0,1-.63,0l-4.64-2.42a.44.44,0,0,1-.23-.38v-1Z"/><path class="cls-15" d="M103.47,178.91,99.56,181a.58.58,0,0,1-.5,0l-4.6-2.22a.57.57,0,0,1,0-1l3.67-1.81a1.61,1.61,0,0,1,1.45,0l3.91,2A.57.57,0,0,1,103.47,178.91Z"/><path class="cls-14" d="M59.85,200.53v1.2a.5.5,0,0,1-.28.45l-3.89,2a.67.67,0,0,1-.63,0l-4.63-2.42a.43.43,0,0,1-.23-.38v-1Z"/><path class="cls-15" d="M59.53,201l-3.9,2.06a.58.58,0,0,1-.5,0l-4.61-2.23a.57.57,0,0,1,0-1L54.17,198a1.64,1.64,0,0,1,1.45,0l3.91,2A.57.57,0,0,1,59.53,201Z"/><path class="cls-14" d="M110.05,175.24v1.2a.5.5,0,0,1-.28.45l-3.89,2a.7.7,0,0,1-.63,0l-4.63-2.42a.44.44,0,0,1-.23-.38v-1Z"/><path class="cls-15" d="M109.73,175.75l-3.91,2.06a.56.56,0,0,1-.49,0l-4.61-2.22a.57.57,0,0,1,0-1l3.66-1.81a1.61,1.61,0,0,1,1.45,0l3.91,2A.57.57,0,0,1,109.73,175.75Z"/><path class="cls-14" d="M122.6,168.85v1.2a.5.5,0,0,1-.28.45l-3.89,2a.7.7,0,0,1-.63,0l-4.63-2.42a.43.43,0,0,1-.23-.38v-1Z"/><path class="cls-15" d="M122.28,169.36l-3.91,2.06a.56.56,0,0,1-.49,0l-4.61-2.23a.57.57,0,0,1,0-1l3.66-1.81a1.64,1.64,0,0,1,1.45,0l3.91,2A.57.57,0,0,1,122.28,169.36Z"/><path class="cls-14" d="M128.78,165.67v1.2a.49.49,0,0,1-.27.45l-3.89,2a.67.67,0,0,1-.63,0l-4.64-2.42a.43.43,0,0,1-.23-.38v-1Z"/><path class="cls-15" d="M128.47,166.18l-3.91,2.06a.56.56,0,0,1-.49,0L119.46,166a.57.57,0,0,1,0-1l3.67-1.81a1.64,1.64,0,0,1,1.45,0l3.91,2A.57.57,0,0,1,128.47,166.18Z"/><path class="cls-14" d="M134.86,162.49v1.2a.52.52,0,0,1-.28.46l-3.89,2a.68.68,0,0,1-.62,0l-4.64-2.43a.43.43,0,0,1-.23-.38v-1Z"/><path class="cls-15" d="M134.55,163l-3.91,2.06a.58.58,0,0,1-.5,0l-4.61-2.23a.57.57,0,0,1,0-1l3.67-1.81a1.62,1.62,0,0,1,1.44,0l3.92,2A.57.57,0,0,1,134.55,163Z"/><path class="cls-14" d="M141.24,159.35v1.21a.51.51,0,0,1-.28.45l-3.89,2a.7.7,0,0,1-.63,0l-4.63-2.42a.44.44,0,0,1-.23-.38v-1Z"/><path class="cls-15" d="M140.92,159.86,137,161.92a.56.56,0,0,1-.49,0l-4.61-2.22a.57.57,0,0,1,0-1l3.66-1.81a1.61,1.61,0,0,1,1.45,0l3.91,2A.57.57,0,0,1,140.92,159.86Z"/><path class="cls-14" d="M147.46,156.18v1.2a.51.51,0,0,1-.28.45l-3.89,2a.68.68,0,0,1-.62,0L138,157.38a.44.44,0,0,1-.23-.38v-1Z"/><path class="cls-15" d="M147.14,156.69l-3.9,2.05a.58.58,0,0,1-.5,0l-4.61-2.22a.57.57,0,0,1,0-1l3.66-1.81a1.61,1.61,0,0,1,1.45,0l3.92,2A.57.57,0,0,1,147.14,156.69Z"/><path class="cls-14" d="M153.88,153.09v1.21a.5.5,0,0,1-.27.45l-3.89,2a.7.7,0,0,1-.63,0l-4.63-2.43a.41.41,0,0,1-.23-.38v-1Z"/><path class="cls-15" d="M153.57,153.6l-3.91,2.06a.56.56,0,0,1-.49,0l-4.61-2.22a.58.58,0,0,1,0-1l3.67-1.81a1.64,1.64,0,0,1,1.45,0l3.91,2A.57.57,0,0,1,153.57,153.6Z"/><path class="cls-14" d="M160.25,149.9v1.2a.5.5,0,0,1-.27.45l-3.89,2a.7.7,0,0,1-.63,0l-4.64-2.42a.43.43,0,0,1-.22-.38v-1Z"/><path class="cls-15" d="M159.94,150.41,156,152.46a.56.56,0,0,1-.49,0l-4.61-2.22a.57.57,0,0,1,0-1l3.67-1.81a1.61,1.61,0,0,1,1.45,0l3.91,2A.58.58,0,0,1,159.94,150.41Z"/><path class="cls-14" d="M166.19,146.55v1.2a.5.5,0,0,1-.28.45l-3.89,2a.7.7,0,0,1-.63,0l-4.63-2.42a.43.43,0,0,1-.23-.38v-1Z"/><path class="cls-15" d="M165.87,147.06l-3.9,2.06a.58.58,0,0,1-.5,0l-4.61-2.22a.57.57,0,0,1,0-1l3.66-1.81a1.61,1.61,0,0,1,1.45,0l3.91,2A.57.57,0,0,1,165.87,147.06Z"/><path class="cls-14" d="M172.37,143.37v1.2a.49.49,0,0,1-.27.45l-3.89,2a.67.67,0,0,1-.63,0l-4.64-2.42a.42.42,0,0,1-.22-.38v-1Z"/><path class="cls-15" d="M172.06,143.88l-3.91,2.06a.56.56,0,0,1-.49,0l-4.61-2.23a.57.57,0,0,1,0-1l3.67-1.81a1.64,1.64,0,0,1,1.45,0l3.91,2A.57.57,0,0,1,172.06,143.88Z"/><path class="cls-14" d="M178.45,140.19v1.2a.52.52,0,0,1-.27.46l-3.89,2a.67.67,0,0,1-.63,0L169,141.39a.43.43,0,0,1-.23-.38v-1Z"/><path class="cls-15" d="M178.14,140.7l-3.91,2.06a.58.58,0,0,1-.5,0l-4.61-2.23a.57.57,0,0,1,0-1l3.67-1.81a1.62,1.62,0,0,1,1.44,0l3.92,2A.57.57,0,0,1,178.14,140.7Z"/><path class="cls-14" d="M184.83,137.05v1.21a.51.51,0,0,1-.28.45l-3.89,2a.7.7,0,0,1-.63,0l-4.63-2.43a.42.42,0,0,1-.23-.37v-1Z"/><path class="cls-15" d="M184.51,137.56l-3.9,2.06a.58.58,0,0,1-.5,0l-4.61-2.22a.57.57,0,0,1,0-1l3.66-1.81a1.61,1.61,0,0,1,1.45,0l3.91,2A.57.57,0,0,1,184.51,137.56Z"/><path class="cls-14" d="M191.05,133.88v1.2a.51.51,0,0,1-.28.45l-3.89,2a.68.68,0,0,1-.62,0l-4.64-2.42a.44.44,0,0,1-.23-.38v-1Z"/><path class="cls-15" d="M190.74,134.39l-3.91,2.05a.58.58,0,0,1-.5,0l-4.61-2.22a.57.57,0,0,1,0-1l3.67-1.81a1.59,1.59,0,0,1,1.44,0l3.92,2A.58.58,0,0,1,190.74,134.39Z"/><path class="cls-14" d="M197.48,130.79V132a.52.52,0,0,1-.28.46l-3.89,2a.7.7,0,0,1-.63,0L188.05,132a.43.43,0,0,1-.23-.38v-1Z"/><path class="cls-15" d="M197.16,131.3l-3.91,2.06a.56.56,0,0,1-.49,0l-4.61-2.23a.57.57,0,0,1,0-1l3.66-1.81a1.64,1.64,0,0,1,1.45,0l3.91,2A.57.57,0,0,1,197.16,131.3Z"/><path class="cls-14" d="M203.85,127.6v1.2a.51.51,0,0,1-.28.45l-3.89,2a.7.7,0,0,1-.63,0l-4.63-2.42a.42.42,0,0,1-.23-.38v-1Z"/><path class="cls-15" d="M203.53,128.11l-3.91,2a.56.56,0,0,1-.49,0L194.52,128a.57.57,0,0,1,0-1l3.67-1.81a1.61,1.61,0,0,1,1.45,0l3.91,2A.58.58,0,0,1,203.53,128.11Z"/><path class="cls-14" d="M116.32,172v1.2a.51.51,0,0,1-.28.45l-3.89,2a.68.68,0,0,1-.62,0l-4.64-2.42a.44.44,0,0,1-.23-.38v-1Z"/><path class="cls-15" d="M116,172.54l-3.91,2.06a.58.58,0,0,1-.5,0L107,172.38a.57.57,0,0,1,0-1l3.67-1.81a1.59,1.59,0,0,1,1.44,0l3.92,2A.57.57,0,0,1,116,172.54Z"/><path class="cls-14" d="M44.18,198.89v1.2a.51.51,0,0,1-.28.45l-3.89,2a.68.68,0,0,1-.62,0l-4.64-2.42a.44.44,0,0,1-.23-.38v-1Z"/><path class="cls-15" d="M43.87,199.4l-3.91,2a.55.55,0,0,1-.5,0l-4.61-2.22a.57.57,0,0,1,0-1l3.67-1.81a1.59,1.59,0,0,1,1.44,0l3.92,2A.57.57,0,0,1,43.87,199.4Z"/><path class="cls-14" d="M56.73,192.5v1.2a.5.5,0,0,1-.28.45l-3.89,2a.65.65,0,0,1-.62,0L47.3,193.7a.43.43,0,0,1-.23-.38v-1Z"/><path class="cls-15" d="M56.42,193l-3.91,2.06a.58.58,0,0,1-.5,0l-4.61-2.22a.57.57,0,0,1,0-1L51.06,190a1.59,1.59,0,0,1,1.44,0l3.92,2A.57.57,0,0,1,56.42,193Z"/><path class="cls-14" d="M62.92,189.32v1.2a.5.5,0,0,1-.28.45l-3.89,2a.67.67,0,0,1-.63,0l-4.63-2.42a.43.43,0,0,1-.23-.38v-1Z"/><path class="cls-15" d="M62.6,189.83l-3.9,2.06a.58.58,0,0,1-.5,0l-4.61-2.23a.57.57,0,0,1,0-1l3.66-1.81a1.64,1.64,0,0,1,1.45,0l3.91,2A.57.57,0,0,1,62.6,189.83Z"/><path class="cls-14" d="M69,186.14v1.2a.5.5,0,0,1-.28.45l-3.89,2a.67.67,0,0,1-.63,0l-4.63-2.42a.43.43,0,0,1-.23-.38v-1Z"/><path class="cls-15" d="M68.68,186.65l-3.91,2.06a.56.56,0,0,1-.49,0l-4.61-2.23a.57.57,0,0,1,0-1l3.66-1.81a1.64,1.64,0,0,1,1.45,0l3.91,2A.57.57,0,0,1,68.68,186.65Z"/><path class="cls-14" d="M75.37,183v1.21a.51.51,0,0,1-.28.45l-3.89,2a.68.68,0,0,1-.62,0l-4.64-2.43a.43.43,0,0,1-.23-.38v-1Z"/><path class="cls-15" d="M75.06,183.51l-3.91,2.06a.58.58,0,0,1-.5,0L66,183.36a.58.58,0,0,1,0-1l3.67-1.81a1.62,1.62,0,0,1,1.44,0l3.92,2A.57.57,0,0,1,75.06,183.51Z"/><path class="cls-14" d="M81.59,179.82V181a.5.5,0,0,1-.27.45l-3.89,2a.7.7,0,0,1-.63,0L72.17,181a.42.42,0,0,1-.23-.38v-1Z"/><path class="cls-15" d="M81.28,180.33l-3.91,2.06a.56.56,0,0,1-.49,0l-4.61-2.22a.57.57,0,0,1,0-1l3.67-1.81a1.61,1.61,0,0,1,1.45,0l3.91,2A.57.57,0,0,1,81.28,180.33Z"/><path class="cls-14" d="M88,176.74v1.2a.5.5,0,0,1-.28.45l-3.89,2a.65.65,0,0,1-.62,0l-4.64-2.42a.43.43,0,0,1-.23-.38v-1Z"/><path class="cls-15" d="M87.71,177.25l-3.91,2.06a.58.58,0,0,1-.5,0l-4.61-2.23a.57.57,0,0,1,0-1l3.66-1.81a1.64,1.64,0,0,1,1.45,0l3.92,2A.58.58,0,0,1,87.71,177.25Z"/><path class="cls-14" d="M94.39,173.54v1.21a.51.51,0,0,1-.28.45l-3.89,2a.7.7,0,0,1-.63,0L85,174.75a.44.44,0,0,1-.23-.38v-1Z"/><path class="cls-15" d="M94.07,174.05l-3.9,2.06a.58.58,0,0,1-.5,0l-4.61-2.22a.57.57,0,0,1,0-1l3.66-1.81a1.61,1.61,0,0,1,1.45,0l3.92,2A.57.57,0,0,1,94.07,174.05Z"/><path class="cls-14" d="M50.46,195.68v1.2a.51.51,0,0,1-.28.45l-3.89,2a.7.7,0,0,1-.63,0L41,196.88a.44.44,0,0,1-.23-.38v-1Z"/><path class="cls-15" d="M50.14,196.19l-3.91,2.05a.53.53,0,0,1-.49,0L41.13,196a.57.57,0,0,1,0-1l3.66-1.81a1.61,1.61,0,0,1,1.45,0l3.91,2A.57.57,0,0,1,50.14,196.19Z"/><path class="cls-14" d="M100.65,170.38v1.21a.5.5,0,0,1-.27.45l-3.89,2a.7.7,0,0,1-.63,0l-4.64-2.42a.44.44,0,0,1-.23-.38v-1Z"/><path class="cls-15" d="M100.34,170.89,96.43,173a.56.56,0,0,1-.49,0l-4.61-2.22a.57.57,0,0,1,0-1L95,167.9a1.61,1.61,0,0,1,1.45,0l3.91,2A.57.57,0,0,1,100.34,170.89Z"/><path class="cls-14" d="M113.2,164v1.2a.5.5,0,0,1-.27.45l-3.89,2a.7.7,0,0,1-.63,0l-4.64-2.42a.44.44,0,0,1-.23-.38v-1Z"/><path class="cls-15" d="M112.89,164.51,109,166.56a.56.56,0,0,1-.49,0l-4.61-2.22a.57.57,0,0,1,0-1l3.67-1.81a1.61,1.61,0,0,1,1.45,0l3.91,2A.57.57,0,0,1,112.89,164.51Z"/><path class="cls-14" d="M119.39,160.82V162a.51.51,0,0,1-.28.45l-3.89,2a.68.68,0,0,1-.62,0L110,162a.44.44,0,0,1-.23-.38v-1Z"/><path class="cls-15" d="M119.08,161.33l-3.91,2.06a.58.58,0,0,1-.5,0l-4.61-2.22a.57.57,0,0,1,0-1l3.66-1.81a1.64,1.64,0,0,1,1.45,0l3.92,2A.57.57,0,0,1,119.08,161.33Z"/><path class="cls-14" d="M125.47,157.64v1.2a.5.5,0,0,1-.28.45l-3.89,2a.7.7,0,0,1-.63,0L116,158.84a.43.43,0,0,1-.23-.38v-1Z"/><path class="cls-15" d="M125.15,158.15l-3.9,2.06a.58.58,0,0,1-.5,0L116.14,158a.57.57,0,0,1,0-1l3.66-1.81a1.64,1.64,0,0,1,1.45,0l3.91,2A.57.57,0,0,1,125.15,158.15Z"/><path class="cls-14" d="M131.84,154.5v1.2a.49.49,0,0,1-.27.45l-3.89,2a.67.67,0,0,1-.63,0l-4.64-2.42a.43.43,0,0,1-.23-.38v-1Z"/><path class="cls-15" d="M131.53,155l-3.91,2.06a.56.56,0,0,1-.49,0l-4.61-2.23a.57.57,0,0,1,0-1l3.67-1.81a1.64,1.64,0,0,1,1.45,0l3.91,2A.57.57,0,0,1,131.53,155Z"/><path class="cls-14" d="M138.07,151.32v1.2a.52.52,0,0,1-.28.46l-3.89,2a.7.7,0,0,1-.63,0l-4.63-2.43a.43.43,0,0,1-.23-.38v-1Z"/><path class="cls-15" d="M137.75,151.83l-3.91,2.06a.56.56,0,0,1-.49,0l-4.61-2.22a.58.58,0,0,1,0-1l3.66-1.81a1.64,1.64,0,0,1,1.45,0l3.91,2A.57.57,0,0,1,137.75,151.83Z"/><path class="cls-14" d="M144.49,148.24v1.2a.5.5,0,0,1-.28.45l-3.89,2a.68.68,0,0,1-.62,0l-4.64-2.42a.43.43,0,0,1-.23-.38v-1Z"/><path class="cls-15" d="M144.18,148.75l-3.91,2.06a.58.58,0,0,1-.5,0l-4.61-2.23a.57.57,0,0,1,0-1l3.67-1.81a1.62,1.62,0,0,1,1.44,0l3.92,2A.57.57,0,0,1,144.18,148.75Z"/><path class="cls-14" d="M150.86,145v1.2a.52.52,0,0,1-.28.46l-3.89,2a.68.68,0,0,1-.62,0l-4.64-2.43a.43.43,0,0,1-.23-.38v-1Z"/><path class="cls-15" d="M150.55,145.55l-3.91,2.06a.58.58,0,0,1-.5,0l-4.61-2.23a.57.57,0,0,1,0-1l3.67-1.81a1.62,1.62,0,0,1,1.44,0l3.92,2A.57.57,0,0,1,150.55,145.55Z"/><path class="cls-14" d="M156.79,141.7v1.2a.5.5,0,0,1-.27.45l-3.89,2a.7.7,0,0,1-.63,0l-4.64-2.42a.43.43,0,0,1-.22-.38v-1Z"/><path class="cls-15" d="M156.48,142.21l-3.91,2a.56.56,0,0,1-.49,0l-4.61-2.22a.57.57,0,0,1,0-1l3.67-1.81a1.61,1.61,0,0,1,1.45,0l3.91,2A.58.58,0,0,1,156.48,142.21Z"/><path class="cls-14" d="M163,138.52v1.2a.51.51,0,0,1-.28.45l-3.89,2a.68.68,0,0,1-.62,0l-4.64-2.42a.44.44,0,0,1-.23-.38v-1Z"/><path class="cls-15" d="M162.67,139l-3.91,2.05a.55.55,0,0,1-.5,0l-4.61-2.22a.57.57,0,0,1,0-1l3.67-1.81a1.62,1.62,0,0,1,1.44,0l3.92,2A.57.57,0,0,1,162.67,139Z"/><path class="cls-14" d="M169.06,135.34v1.2a.5.5,0,0,1-.28.45l-3.89,2a.7.7,0,0,1-.63,0l-4.63-2.42a.43.43,0,0,1-.23-.38v-1Z"/><path class="cls-15" d="M168.74,135.85l-3.9,2.06a.58.58,0,0,1-.5,0l-4.61-2.22a.57.57,0,0,1,0-1l3.66-1.81a1.61,1.61,0,0,1,1.45,0l3.92,2A.57.57,0,0,1,168.74,135.85Z"/><path class="cls-14" d="M175.43,132.2v1.2a.49.49,0,0,1-.27.45l-3.89,2a.67.67,0,0,1-.63,0L166,133.4a.41.41,0,0,1-.23-.38v-1Z"/><path class="cls-15" d="M175.12,132.71l-3.91,2.06a.56.56,0,0,1-.49,0l-4.61-2.23a.57.57,0,0,1,0-1l3.67-1.81a1.64,1.64,0,0,1,1.45,0l3.91,2A.57.57,0,0,1,175.12,132.71Z"/><path class="cls-14" d="M181.66,129v1.2a.52.52,0,0,1-.28.46l-3.89,2a.7.7,0,0,1-.63,0l-4.63-2.43a.43.43,0,0,1-.23-.38v-1Z"/><path class="cls-15" d="M181.34,129.53l-3.9,2.06a.58.58,0,0,1-.5,0l-4.61-2.23a.57.57,0,0,1,0-1l3.66-1.81a1.64,1.64,0,0,1,1.45,0l3.91,2A.57.57,0,0,1,181.34,129.53Z"/><path class="cls-14" d="M188.08,125.94v1.2a.49.49,0,0,1-.27.45l-3.89,2a.7.7,0,0,1-.63,0l-4.64-2.42a.43.43,0,0,1-.23-.38v-1Z"/><path class="cls-15" d="M187.77,126.45l-3.91,2.06a.58.58,0,0,1-.5,0l-4.6-2.22a.57.57,0,0,1,0-1l3.67-1.81a1.64,1.64,0,0,1,1.45,0l3.91,2A.57.57,0,0,1,187.77,126.45Z"/><path class="cls-14" d="M194.45,122.74v1.2a.52.52,0,0,1-.27.46l-3.89,2a.67.67,0,0,1-.63,0L185,123.94a.43.43,0,0,1-.23-.38v-1Z"/><path class="cls-15" d="M194.14,123.25l-3.91,2.06a.58.58,0,0,1-.5,0l-4.6-2.23a.57.57,0,0,1,0-1l3.67-1.81a1.64,1.64,0,0,1,1.45,0l3.91,2A.57.57,0,0,1,194.14,123.25Z"/><path class="cls-14" d="M106.93,167.17v1.21a.51.51,0,0,1-.28.45l-3.89,2a.7.7,0,0,1-.63,0l-4.63-2.42a.44.44,0,0,1-.23-.38v-1Z"/><path class="cls-15" d="M106.61,167.68l-3.9,2.06a.58.58,0,0,1-.5,0l-4.61-2.22a.57.57,0,0,1,0-1l3.66-1.81a1.61,1.61,0,0,1,1.45,0l3.91,2A.57.57,0,0,1,106.61,167.68Z"/><path class="cls-14" d="M72.61,200.75V202a.5.5,0,0,1-.28.45l-3.89,2a.7.7,0,0,1-.63,0L63.18,202a.41.41,0,0,1-.23-.38v-1Z"/><path class="cls-15" d="M72.29,201.26l-3.91,2.06a.56.56,0,0,1-.49,0l-4.61-2.22a.57.57,0,0,1,0-1l3.67-1.81a1.61,1.61,0,0,1,1.45,0l3.91,2A.57.57,0,0,1,72.29,201.26Z"/><path class="cls-14" d="M78.79,197.57v1.2a.49.49,0,0,1-.27.45l-3.89,2a.67.67,0,0,1-.63,0l-4.64-2.42a.43.43,0,0,1-.23-.38v-1Z"/><path class="cls-15" d="M78.48,198.08l-3.91,2.06a.58.58,0,0,1-.5,0l-4.6-2.23a.57.57,0,0,1,0-1l3.67-1.81a1.64,1.64,0,0,1,1.45,0l3.91,2A.57.57,0,0,1,78.48,198.08Z"/><path class="cls-14" d="M84.87,194.39v1.2a.5.5,0,0,1-.28.45l-3.89,2a.65.65,0,0,1-.62,0l-4.64-2.42a.43.43,0,0,1-.23-.38v-1Z"/><path class="cls-15" d="M84.56,194.9,80.65,197a.58.58,0,0,1-.5,0l-4.61-2.23a.57.57,0,0,1,0-1l3.66-1.81a1.64,1.64,0,0,1,1.45,0l3.92,2A.57.57,0,0,1,84.56,194.9Z"/><path class="cls-14" d="M91.25,191.25v1.21a.51.51,0,0,1-.28.45l-3.89,2a.7.7,0,0,1-.63,0l-4.63-2.43a.4.4,0,0,1-.23-.37v-1Z"/><path class="cls-15" d="M90.93,191.76,87,193.82a.56.56,0,0,1-.49,0l-4.61-2.22a.57.57,0,0,1,0-1l3.67-1.81a1.61,1.61,0,0,1,1.45,0l3.91,2A.57.57,0,0,1,90.93,191.76Z"/><path class="cls-14" d="M97.47,188.08v1.2a.51.51,0,0,1-.28.45l-3.89,2a.7.7,0,0,1-.63,0L88,189.28a.44.44,0,0,1-.23-.38v-1Z"/><path class="cls-15" d="M97.15,188.59l-3.9,2a.58.58,0,0,1-.5,0l-4.61-2.22a.57.57,0,0,1,0-1l3.66-1.81a1.61,1.61,0,0,1,1.45,0l3.91,2A.58.58,0,0,1,97.15,188.59Z"/><path class="cls-14" d="M103.89,185v1.2a.52.52,0,0,1-.27.46l-3.89,2a.67.67,0,0,1-.63,0l-4.64-2.42a.43.43,0,0,1-.23-.38v-1Z"/><path class="cls-15" d="M103.58,185.5l-3.91,2.06a.56.56,0,0,1-.49,0l-4.61-2.23a.57.57,0,0,1,0-1l3.67-1.81a1.64,1.64,0,0,1,1.45,0l3.91,2A.57.57,0,0,1,103.58,185.5Z"/><path class="cls-14" d="M110.26,181.79V183a.5.5,0,0,1-.27.45l-3.89,2a.7.7,0,0,1-.63,0L100.83,183a.44.44,0,0,1-.23-.38v-1Z"/><path class="cls-15" d="M110,182.3,106,184.36a.56.56,0,0,1-.49,0l-4.61-2.22a.57.57,0,0,1,0-1l3.67-1.81a1.61,1.61,0,0,1,1.45,0l3.91,2A.57.57,0,0,1,110,182.3Z"/><path class="cls-14" d="M66.33,203.93v1.2a.51.51,0,0,1-.28.45l-3.89,2a.68.68,0,0,1-.62,0l-4.64-2.42a.44.44,0,0,1-.23-.38v-1Z"/><path class="cls-15" d="M66,204.44l-3.9,2.05a.55.55,0,0,1-.5,0L57,204.28a.57.57,0,0,1,0-1l3.66-1.81a1.64,1.64,0,0,1,1.45,0l3.92,2A.57.57,0,0,1,66,204.44Z"/><path class="cls-14" d="M116.53,178.64v1.2a.51.51,0,0,1-.28.45l-3.89,2a.7.7,0,0,1-.63,0l-4.63-2.42a.44.44,0,0,1-.23-.38v-1Z"/><path class="cls-15" d="M116.21,179.15l-3.9,2a.58.58,0,0,1-.5,0L107.2,179a.57.57,0,0,1,0-1l3.66-1.81a1.61,1.61,0,0,1,1.45,0l3.91,2A.58.58,0,0,1,116.21,179.15Z"/><path class="cls-14" d="M129.08,172.25v1.2a.51.51,0,0,1-.28.45l-3.89,2a.7.7,0,0,1-.63,0l-4.63-2.42a.44.44,0,0,1-.23-.38v-1Z"/><path class="cls-15" d="M128.76,172.76l-3.9,2.05a.55.55,0,0,1-.5,0l-4.61-2.22a.57.57,0,0,1,0-1l3.66-1.81a1.61,1.61,0,0,1,1.45,0l3.91,2A.57.57,0,0,1,128.76,172.76Z"/><path class="cls-14" d="M135.26,169.07v1.2a.5.5,0,0,1-.27.45l-3.89,2a.7.7,0,0,1-.63,0l-4.64-2.42a.43.43,0,0,1-.22-.38v-1Z"/><path class="cls-15" d="M135,169.58,131,171.64a.56.56,0,0,1-.49,0l-4.61-2.22a.57.57,0,0,1,0-1l3.67-1.81a1.61,1.61,0,0,1,1.45,0l3.91,2A.57.57,0,0,1,135,169.58Z"/><path class="cls-14" d="M141.34,165.89v1.2a.49.49,0,0,1-.27.45l-3.9,2a.68.68,0,0,1-.62,0l-4.64-2.42a.43.43,0,0,1-.23-.38v-1Z"/><path class="cls-15" d="M141,166.4l-3.91,2.06a.58.58,0,0,1-.5,0L132,166.24a.57.57,0,0,1,0-1l3.67-1.81a1.62,1.62,0,0,1,1.44,0l3.92,2A.57.57,0,0,1,141,166.4Z"/><path class="cls-14" d="M147.72,162.75V164a.5.5,0,0,1-.28.45l-3.89,2a.67.67,0,0,1-.63,0L138.29,164a.43.43,0,0,1-.23-.38v-1Z"/><path class="cls-15" d="M147.4,163.26l-3.9,2.06a.58.58,0,0,1-.5,0l-4.61-2.23a.57.57,0,0,1,0-1l3.66-1.81a1.64,1.64,0,0,1,1.45,0l3.91,2A.57.57,0,0,1,147.4,163.26Z"/><path class="cls-14" d="M153.94,159.57v1.21a.51.51,0,0,1-.28.45l-3.89,2a.68.68,0,0,1-.62,0l-4.64-2.43a.43.43,0,0,1-.23-.38v-1Z"/><path class="cls-15" d="M153.63,160.08l-3.91,2.06a.58.58,0,0,1-.5,0l-4.61-2.22a.58.58,0,0,1,0-1l3.66-1.81a1.64,1.64,0,0,1,1.45,0l3.92,2A.57.57,0,0,1,153.63,160.08Z"/><path class="cls-14" d="M160.37,156.49v1.2a.5.5,0,0,1-.28.45l-3.89,2a.67.67,0,0,1-.63,0l-4.63-2.42a.41.41,0,0,1-.23-.38v-1Z"/><path class="cls-15" d="M160.05,157l-3.91,2.06a.56.56,0,0,1-.49,0L151,156.84a.57.57,0,0,1,0-1l3.67-1.81a1.64,1.64,0,0,1,1.45,0l3.91,2A.57.57,0,0,1,160.05,157Z"/><path class="cls-14" d="M166.74,153.29v1.2a.52.52,0,0,1-.28.46l-3.89,2a.7.7,0,0,1-.63,0l-4.63-2.43a.41.41,0,0,1-.23-.38v-1Z"/><path class="cls-15" d="M166.42,153.8l-3.91,2.06a.56.56,0,0,1-.49,0l-4.61-2.22a.58.58,0,0,1,0-1l3.67-1.81a1.64,1.64,0,0,1,1.45,0l3.91,2A.57.57,0,0,1,166.42,153.8Z"/><path class="cls-14" d="M172.67,150v1.2a.51.51,0,0,1-.28.45l-3.89,2a.7.7,0,0,1-.63,0l-4.63-2.42a.44.44,0,0,1-.23-.38v-1Z"/><path class="cls-15" d="M172.35,150.46l-3.9,2a.58.58,0,0,1-.5,0l-4.61-2.22a.57.57,0,0,1,0-1l3.66-1.81a1.61,1.61,0,0,1,1.45,0l3.91,2A.57.57,0,0,1,172.35,150.46Z"/><path class="cls-14" d="M178.86,146.77V148a.51.51,0,0,1-.28.45l-3.89,2a.7.7,0,0,1-.63,0L169.43,148a.42.42,0,0,1-.23-.38v-1Z"/><path class="cls-15" d="M178.54,147.28l-3.91,2.06a.56.56,0,0,1-.49,0l-4.61-2.22a.57.57,0,0,1,0-1l3.67-1.81a1.64,1.64,0,0,1,1.45,0l3.91,2A.57.57,0,0,1,178.54,147.28Z"/><path class="cls-14" d="M184.93,143.59v1.2a.49.49,0,0,1-.27.45l-3.89,2a.7.7,0,0,1-.63,0l-4.64-2.42a.43.43,0,0,1-.23-.38v-1Z"/><path class="cls-15" d="M184.62,144.1l-3.91,2.06a.56.56,0,0,1-.49,0l-4.61-2.22a.57.57,0,0,1,0-1l3.67-1.81a1.64,1.64,0,0,1,1.45,0l3.91,2A.57.57,0,0,1,184.62,144.1Z"/><path class="cls-14" d="M191.31,140.45v1.2a.5.5,0,0,1-.28.45l-3.89,2a.67.67,0,0,1-.63,0l-4.63-2.42a.43.43,0,0,1-.23-.38v-1Z"/><path class="cls-15" d="M191,141l-3.9,2.06a.58.58,0,0,1-.5,0L182,140.8a.57.57,0,0,1,0-1l3.66-1.81a1.64,1.64,0,0,1,1.45,0l3.91,2A.57.57,0,0,1,191,141Z"/><path class="cls-14" d="M197.53,137.27v1.2a.52.52,0,0,1-.28.46l-3.89,2a.68.68,0,0,1-.62,0l-4.64-2.43a.43.43,0,0,1-.23-.38v-1Z"/><path class="cls-15" d="M197.22,137.78l-3.91,2.06a.58.58,0,0,1-.5,0l-4.61-2.22a.58.58,0,0,1,0-1l3.67-1.81a1.62,1.62,0,0,1,1.44,0l3.92,2A.57.57,0,0,1,197.22,137.78Z"/><path class="cls-14" d="M204,134.19v1.2a.5.5,0,0,1-.28.45l-3.89,2a.7.7,0,0,1-.63,0l-4.63-2.42a.43.43,0,0,1-.23-.38v-1Z"/><path class="cls-15" d="M203.64,134.7l-3.9,2.06a.58.58,0,0,1-.5,0l-4.61-2.23a.57.57,0,0,1,0-1l3.66-1.81a1.64,1.64,0,0,1,1.45,0l3.91,2A.57.57,0,0,1,203.64,134.7Z"/><path class="cls-14" d="M210.33,131v1.2a.52.52,0,0,1-.28.46l-3.89,2a.7.7,0,0,1-.63,0l-4.63-2.43a.43.43,0,0,1-.23-.38v-1Z"/><path class="cls-15" d="M210,131.5l-3.91,2.06a.56.56,0,0,1-.49,0L201,131.34a.57.57,0,0,1,0-1l3.66-1.81a1.64,1.64,0,0,1,1.45,0l3.91,2A.57.57,0,0,1,210,131.5Z"/><path class="cls-14" d="M122.8,175.42v1.21a.51.51,0,0,1-.28.45l-3.89,2a.68.68,0,0,1-.62,0l-4.64-2.42a.44.44,0,0,1-.23-.38v-1Z"/><path class="cls-15" d="M122.49,175.93,118.58,178a.58.58,0,0,1-.5,0l-4.61-2.22a.57.57,0,0,1,0-1l3.67-1.81a1.59,1.59,0,0,1,1.44,0l3.92,2A.57.57,0,0,1,122.49,175.93Z"/><path class="cls-14" d="M79.25,204.32v1.2A.49.49,0,0,1,79,206l-3.89,2a.7.7,0,0,1-.63,0l-4.64-2.42a.42.42,0,0,1-.22-.38v-1Z"/><path class="cls-15" d="M78.94,204.83,75,206.89a.56.56,0,0,1-.49,0l-4.61-2.22a.57.57,0,0,1,0-1l3.67-1.81a1.61,1.61,0,0,1,1.45,0l3.91,2A.57.57,0,0,1,78.94,204.83Z"/><path class="cls-14" d="M85.44,201.14v1.2a.5.5,0,0,1-.28.45l-3.89,2a.65.65,0,0,1-.62,0L76,202.34a.43.43,0,0,1-.23-.38v-1Z"/><path class="cls-15" d="M85.13,201.65l-3.91,2.06a.58.58,0,0,1-.5,0l-4.61-2.23a.57.57,0,0,1,0-1l3.67-1.81a1.62,1.62,0,0,1,1.44,0l3.92,2A.57.57,0,0,1,85.13,201.65Z"/><path class="cls-14" d="M91.52,198v1.2a.5.5,0,0,1-.28.45l-3.89,2a.67.67,0,0,1-.63,0l-4.63-2.42a.43.43,0,0,1-.23-.38v-1Z"/><path class="cls-15" d="M91.2,198.47l-3.9,2.06a.58.58,0,0,1-.5,0l-4.61-2.23a.57.57,0,0,1,0-1l3.66-1.81a1.64,1.64,0,0,1,1.45,0l3.92,2A.57.57,0,0,1,91.2,198.47Z"/><path class="cls-14" d="M97.89,194.82V196a.5.5,0,0,1-.27.45l-3.89,2a.7.7,0,0,1-.63,0L88.46,196a.42.42,0,0,1-.22-.38v-1Z"/><path class="cls-15" d="M97.58,195.33l-3.91,2.06a.56.56,0,0,1-.49,0l-4.61-2.22a.58.58,0,0,1,0-1l3.67-1.81a1.64,1.64,0,0,1,1.45,0l3.91,2A.57.57,0,0,1,97.58,195.33Z"/><path class="cls-14" d="M104.12,191.64v1.21a.51.51,0,0,1-.28.45l-3.89,2a.7.7,0,0,1-.63,0l-4.63-2.42a.44.44,0,0,1-.23-.38v-1Z"/><path class="cls-15" d="M103.8,192.15l-3.9,2.06a.58.58,0,0,1-.5,0L94.79,192a.57.57,0,0,1,0-1l3.66-1.81a1.61,1.61,0,0,1,1.45,0l3.91,2A.57.57,0,0,1,103.8,192.15Z"/><path class="cls-14" d="M110.54,188.56v1.2a.49.49,0,0,1-.27.45l-3.89,2a.67.67,0,0,1-.63,0l-4.64-2.42a.43.43,0,0,1-.23-.38v-1Z"/><path class="cls-15" d="M110.23,189.07l-3.91,2.06a.58.58,0,0,1-.5,0l-4.6-2.23a.57.57,0,0,1,0-1l3.67-1.81a1.64,1.64,0,0,1,1.45,0l3.91,2A.57.57,0,0,1,110.23,189.07Z"/><path class="cls-14" d="M116.91,185.36v1.21a.5.5,0,0,1-.27.45l-3.89,2a.7.7,0,0,1-.63,0l-4.64-2.43a.41.41,0,0,1-.23-.37v-1Z"/><path class="cls-15" d="M116.6,185.87l-3.91,2.06a.58.58,0,0,1-.5,0l-4.6-2.22a.57.57,0,0,1,0-1l3.67-1.81a1.59,1.59,0,0,1,1.44,0l3.92,2A.57.57,0,0,1,116.6,185.87Z"/><path class="cls-14" d="M73,207.5v1.2a.51.51,0,0,1-.28.45l-3.89,2a.7.7,0,0,1-.63,0l-4.63-2.42a.44.44,0,0,1-.23-.38v-1Z"/><path class="cls-15" d="M72.66,208l-3.9,2.05a.55.55,0,0,1-.5,0l-4.61-2.22a.57.57,0,0,1,0-1L67.3,205a1.61,1.61,0,0,1,1.45,0l3.91,2A.57.57,0,0,1,72.66,208Z"/><path class="cls-14" d="M123.18,182.2v1.21a.51.51,0,0,1-.28.45l-3.89,2a.7.7,0,0,1-.63,0l-4.63-2.42a.44.44,0,0,1-.23-.38v-1Z"/><path class="cls-15" d="M122.86,182.71,119,184.77a.56.56,0,0,1-.49,0l-4.61-2.22a.57.57,0,0,1,0-1l3.66-1.81a1.61,1.61,0,0,1,1.45,0l3.91,2A.57.57,0,0,1,122.86,182.71Z"/><path class="cls-14" d="M135.73,175.82V177a.51.51,0,0,1-.28.45l-3.89,2a.7.7,0,0,1-.63,0L126.3,177a.44.44,0,0,1-.23-.38v-1Z"/><path class="cls-15" d="M135.41,176.33l-3.91,2a.56.56,0,0,1-.49,0l-4.61-2.22a.57.57,0,0,1,0-1l3.66-1.81a1.61,1.61,0,0,1,1.45,0l3.91,2A.57.57,0,0,1,135.41,176.33Z"/><path class="cls-14" d="M141.91,172.64v1.2a.5.5,0,0,1-.27.45l-3.89,2a.7.7,0,0,1-.63,0l-4.64-2.42a.44.44,0,0,1-.23-.38v-1Z"/><path class="cls-15" d="M141.6,173.15l-3.91,2.06a.56.56,0,0,1-.49,0L132.59,173a.57.57,0,0,1,0-1l3.67-1.81a1.64,1.64,0,0,1,1.45,0l3.91,2A.57.57,0,0,1,141.6,173.15Z"/><path class="cls-14" d="M148,169.46v1.2a.5.5,0,0,1-.28.45l-3.89,2a.68.68,0,0,1-.62,0l-4.64-2.42a.43.43,0,0,1-.23-.38v-1Z"/><path class="cls-15" d="M147.68,170,143.77,172a.58.58,0,0,1-.5,0l-4.61-2.22a.57.57,0,0,1,0-1l3.67-1.81a1.59,1.59,0,0,1,1.44,0l3.92,2A.57.57,0,0,1,147.68,170Z"/><path class="cls-14" d="M154.37,166.32v1.2a.5.5,0,0,1-.28.45l-3.89,2a.67.67,0,0,1-.63,0l-4.63-2.42a.43.43,0,0,1-.23-.38v-1Z"/><path class="cls-15" d="M154.05,166.83l-3.91,2.06a.56.56,0,0,1-.49,0L145,166.67a.57.57,0,0,1,0-1l3.66-1.81a1.64,1.64,0,0,1,1.45,0l3.91,2A.57.57,0,0,1,154.05,166.83Z"/><path class="cls-14" d="M160.59,163.14v1.2a.52.52,0,0,1-.28.46l-3.89,2a.7.7,0,0,1-.63,0l-4.63-2.43a.43.43,0,0,1-.23-.38v-1Z"/><path class="cls-15" d="M160.27,163.65l-3.9,2.06a.58.58,0,0,1-.5,0l-4.61-2.22a.58.58,0,0,1,0-1l3.66-1.81a1.64,1.64,0,0,1,1.45,0l3.92,2A.57.57,0,0,1,160.27,163.65Z"/><path class="cls-14" d="M167,160.06v1.2a.49.49,0,0,1-.27.45l-3.89,2a.7.7,0,0,1-.63,0l-4.63-2.42a.41.41,0,0,1-.23-.38v-1Z"/><path class="cls-15" d="M166.7,160.57l-3.91,2.06a.56.56,0,0,1-.49,0l-4.61-2.23a.57.57,0,0,1,0-1l3.67-1.81a1.64,1.64,0,0,1,1.45,0l3.91,2A.57.57,0,0,1,166.7,160.57Z"/><path class="cls-14" d="M173.38,156.86v1.2a.52.52,0,0,1-.27.46l-3.89,2a.7.7,0,0,1-.63,0L164,158.06a.42.42,0,0,1-.22-.38v-1Z"/><path class="cls-15" d="M173.07,157.37l-3.91,2.06a.56.56,0,0,1-.49,0l-4.61-2.23a.57.57,0,0,1,0-1l3.67-1.81a1.64,1.64,0,0,1,1.45,0l3.91,2A.57.57,0,0,1,173.07,157.37Z"/><path class="cls-14" d="M179.32,153.52v1.2a.51.51,0,0,1-.28.45l-3.89,2a.7.7,0,0,1-.63,0l-4.63-2.42a.44.44,0,0,1-.23-.38v-1Z"/><path class="cls-15" d="M179,154l-3.9,2.05a.58.58,0,0,1-.5,0L170,153.87a.57.57,0,0,1,0-1l3.66-1.81a1.61,1.61,0,0,1,1.45,0l3.91,2A.58.58,0,0,1,179,154Z"/><path class="cls-14" d="M185.5,150.34v1.2a.5.5,0,0,1-.27.45l-3.89,2a.7.7,0,0,1-.63,0l-4.64-2.42a.43.43,0,0,1-.22-.38v-1Z"/><path class="cls-15" d="M185.19,150.85l-3.91,2.05a.53.53,0,0,1-.49,0l-4.61-2.22a.57.57,0,0,1,0-1l3.67-1.81a1.64,1.64,0,0,1,1.45,0l3.91,2A.57.57,0,0,1,185.19,150.85Z"/><path class="cls-14" d="M191.58,147.16v1.2a.49.49,0,0,1-.27.45l-3.89,2a.7.7,0,0,1-.63,0l-4.64-2.42a.43.43,0,0,1-.23-.38v-1Z"/><path class="cls-15" d="M191.27,147.67l-3.91,2.06a.58.58,0,0,1-.5,0l-4.61-2.22a.57.57,0,0,1,0-1l3.67-1.81a1.59,1.59,0,0,1,1.44,0l3.92,2A.57.57,0,0,1,191.27,147.67Z"/><path class="cls-14" d="M198,144v1.2a.5.5,0,0,1-.28.45l-3.89,2a.67.67,0,0,1-.63,0l-4.63-2.42a.43.43,0,0,1-.23-.38v-1Z"/><path class="cls-15" d="M197.64,144.53l-3.9,2.06a.58.58,0,0,1-.5,0l-4.61-2.23a.57.57,0,0,1,0-1l3.66-1.81a1.64,1.64,0,0,1,1.45,0l3.91,2A.57.57,0,0,1,197.64,144.53Z"/><path class="cls-14" d="M204.18,140.84V142a.53.53,0,0,1-.28.46l-3.89,2a.68.68,0,0,1-.62,0L194.75,142a.43.43,0,0,1-.23-.38v-1Z"/><path class="cls-15" d="M203.87,141.35,200,143.41a.58.58,0,0,1-.5,0l-4.61-2.23a.57.57,0,0,1,0-1l3.67-1.81a1.62,1.62,0,0,1,1.44,0l3.92,2A.57.57,0,0,1,203.87,141.35Z"/><path class="cls-14" d="M210.61,137.76V139a.5.5,0,0,1-.28.45l-3.89,2a.7.7,0,0,1-.63,0L201.18,139a.43.43,0,0,1-.23-.38v-1Z"/><path class="cls-15" d="M210.29,138.27l-3.91,2.06a.56.56,0,0,1-.49,0l-4.61-2.22a.57.57,0,0,1,0-1l3.66-1.81a1.61,1.61,0,0,1,1.45,0l3.91,2A.57.57,0,0,1,210.29,138.27Z"/><path class="cls-14" d="M217,134.56v1.2a.5.5,0,0,1-.28.45l-3.89,2a.67.67,0,0,1-.63,0l-4.63-2.42a.41.41,0,0,1-.23-.38v-1Z"/><path class="cls-15" d="M216.66,135.07l-3.91,2.06a.56.56,0,0,1-.49,0l-4.61-2.23a.57.57,0,0,1,0-1l3.67-1.81a1.64,1.64,0,0,1,1.45,0l3.91,2A.57.57,0,0,1,216.66,135.07Z"/><path class="cls-14" d="M129.45,179v1.21a.51.51,0,0,1-.28.45l-3.89,2a.68.68,0,0,1-.62,0L120,180.2a.44.44,0,0,1-.23-.38v-1Z"/><path class="cls-15" d="M129.14,179.5l-3.91,2.06a.58.58,0,0,1-.5,0l-4.61-2.22a.57.57,0,0,1,0-1l3.67-1.81a1.59,1.59,0,0,1,1.44,0l3.92,2A.57.57,0,0,1,129.14,179.5Z"/><path class="cls-14" d="M86.13,207.77V209a.51.51,0,0,1-.28.45l-3.89,2a.7.7,0,0,1-.63,0L76.7,209a.44.44,0,0,1-.23-.38v-1Z"/><path class="cls-15" d="M85.81,208.28l-3.9,2.05a.55.55,0,0,1-.5,0l-4.61-2.22a.57.57,0,0,1,0-1l3.66-1.81a1.61,1.61,0,0,1,1.45,0l3.91,2A.57.57,0,0,1,85.81,208.28Z"/><path class="cls-14" d="M92.31,204.59v1.2a.49.49,0,0,1-.27.45l-3.89,2a.7.7,0,0,1-.63,0l-4.63-2.42a.41.41,0,0,1-.23-.38v-1Z"/><path class="cls-15" d="M92,205.1l-3.91,2.06a.56.56,0,0,1-.49,0L83,204.94a.57.57,0,0,1,0-1l3.67-1.81a1.61,1.61,0,0,1,1.45,0l3.91,2A.57.57,0,0,1,92,205.1Z"/><path class="cls-14" d="M98.39,201.41v1.2a.49.49,0,0,1-.27.45l-3.89,2a.67.67,0,0,1-.63,0L89,202.61a.43.43,0,0,1-.23-.38v-1Z"/><path class="cls-15" d="M98.08,201.92,94.17,204a.58.58,0,0,1-.5,0l-4.6-2.23a.57.57,0,0,1,0-1l3.67-1.81a1.64,1.64,0,0,1,1.45,0l3.91,2A.57.57,0,0,1,98.08,201.92Z"/><path class="cls-14" d="M104.77,198.27v1.2a.5.5,0,0,1-.28.45l-3.89,2a.67.67,0,0,1-.63,0l-4.63-2.42a.43.43,0,0,1-.23-.38v-1Z"/><path class="cls-15" d="M104.45,198.78l-3.9,2.06a.58.58,0,0,1-.5,0l-4.61-2.23a.57.57,0,0,1,0-1l3.66-1.81a1.64,1.64,0,0,1,1.45,0l3.91,2A.57.57,0,0,1,104.45,198.78Z"/><path class="cls-14" d="M111,195.09v1.21a.51.51,0,0,1-.28.45l-3.89,2a.68.68,0,0,1-.62,0l-4.64-2.43a.43.43,0,0,1-.23-.38v-1Z"/><path class="cls-15" d="M110.68,195.6l-3.91,2.06a.58.58,0,0,1-.5,0l-4.61-2.22a.58.58,0,0,1,0-1l3.67-1.81a1.62,1.62,0,0,1,1.44,0l3.92,2A.57.57,0,0,1,110.68,195.6Z"/><path class="cls-14" d="M117.42,192v1.2a.5.5,0,0,1-.28.45l-3.89,2a.67.67,0,0,1-.63,0L108,193.21a.43.43,0,0,1-.23-.38v-1Z"/><path class="cls-15" d="M117.1,192.52l-3.91,2.06a.56.56,0,0,1-.49,0l-4.61-2.23a.57.57,0,0,1,0-1l3.66-1.81a1.64,1.64,0,0,1,1.45,0l3.91,2A.57.57,0,0,1,117.1,192.52Z"/><path class="cls-14" d="M123.79,188.81V190a.51.51,0,0,1-.28.45l-3.89,2a.7.7,0,0,1-.63,0L114.36,190a.43.43,0,0,1-.23-.38v-1Z"/><path class="cls-15" d="M123.47,189.32l-3.91,2.06a.56.56,0,0,1-.49,0l-4.61-2.22a.58.58,0,0,1,0-1l3.67-1.81a1.64,1.64,0,0,1,1.45,0l3.91,2A.57.57,0,0,1,123.47,189.32Z"/><path class="cls-14" d="M79.85,211v1.2a.5.5,0,0,1-.27.45l-3.9,2a.68.68,0,0,1-.62,0l-4.64-2.42a.44.44,0,0,1-.23-.38v-1Z"/><path class="cls-15" d="M79.54,211.45l-3.91,2.06a.58.58,0,0,1-.5,0l-4.61-2.22a.57.57,0,0,1,0-1l3.67-1.81a1.59,1.59,0,0,1,1.44,0l3.92,2A.57.57,0,0,1,79.54,211.45Z"/><path class="cls-14" d="M130.05,185.65v1.21a.51.51,0,0,1-.28.45l-3.89,2a.7.7,0,0,1-.63,0l-4.63-2.43a.43.43,0,0,1-.23-.38v-1Z"/><path class="cls-15" d="M129.73,186.16l-3.9,2.06a.58.58,0,0,1-.5,0L120.72,186a.58.58,0,0,1,0-1l3.66-1.81a1.64,1.64,0,0,1,1.45,0l3.91,2A.57.57,0,0,1,129.73,186.16Z"/><path class="cls-14" d="M142.6,179.26v1.21a.51.51,0,0,1-.28.45l-3.89,2a.7.7,0,0,1-.63,0l-4.63-2.42a.44.44,0,0,1-.23-.38v-1Z"/><path class="cls-15" d="M142.28,179.77l-3.9,2.06a.58.58,0,0,1-.5,0l-4.61-2.22a.57.57,0,0,1,0-1l3.66-1.81a1.61,1.61,0,0,1,1.45,0l3.92,2A.57.57,0,0,1,142.28,179.77Z"/><path class="cls-14" d="M148.79,176.09v1.2a.51.51,0,0,1-.28.45l-3.89,2a.7.7,0,0,1-.63,0l-4.63-2.42a.44.44,0,0,1-.23-.38v-1Z"/><path class="cls-15" d="M148.47,176.6l-3.91,2.05a.56.56,0,0,1-.49,0l-4.61-2.22a.57.57,0,0,1,0-1l3.66-1.81a1.61,1.61,0,0,1,1.45,0l3.91,2A.57.57,0,0,1,148.47,176.6Z"/><path class="cls-14" d="M154.86,172.91v1.2a.5.5,0,0,1-.27.45l-3.89,2a.7.7,0,0,1-.63,0l-4.64-2.42a.43.43,0,0,1-.22-.38v-1Z"/><path class="cls-15" d="M154.55,173.42l-3.91,2.06a.56.56,0,0,1-.49,0l-4.61-2.22a.57.57,0,0,1,0-1l3.67-1.81a1.64,1.64,0,0,1,1.45,0l3.91,2A.57.57,0,0,1,154.55,173.42Z"/><path class="cls-14" d="M161.24,169.77V171a.5.5,0,0,1-.28.45l-3.89,2a.7.7,0,0,1-.63,0L151.81,171a.43.43,0,0,1-.23-.38v-1Z"/><path class="cls-15" d="M160.92,170.28l-3.9,2.06a.58.58,0,0,1-.5,0l-4.61-2.23a.57.57,0,0,1,0-1l3.66-1.81a1.64,1.64,0,0,1,1.45,0l3.92,2A.57.57,0,0,1,160.92,170.28Z"/><path class="cls-14" d="M167.46,166.59v1.2a.49.49,0,0,1-.27.45l-3.89,2a.67.67,0,0,1-.63,0L158,167.79a.43.43,0,0,1-.23-.38v-1Z"/><path class="cls-15" d="M167.15,167.1l-3.91,2.06a.58.58,0,0,1-.5,0l-4.6-2.23a.57.57,0,0,1,0-1l3.67-1.81a1.64,1.64,0,0,1,1.45,0l3.91,2A.57.57,0,0,1,167.15,167.1Z"/><path class="cls-14" d="M173.89,163.51v1.2a.51.51,0,0,1-.28.45l-3.89,2a.7.7,0,0,1-.63,0l-4.63-2.42a.44.44,0,0,1-.23-.38v-1Z"/><path class="cls-15" d="M173.57,164l-3.9,2.06a.58.58,0,0,1-.5,0l-4.61-2.22a.57.57,0,0,1,0-1l3.66-1.81a1.61,1.61,0,0,1,1.45,0l3.91,2A.57.57,0,0,1,173.57,164Z"/><path class="cls-14" d="M180.26,160.31v1.2a.5.5,0,0,1-.28.45l-3.89,2a.67.67,0,0,1-.63,0l-4.63-2.42a.43.43,0,0,1-.23-.38v-1Z"/><path class="cls-15" d="M179.94,160.82l-3.9,2.06a.58.58,0,0,1-.5,0l-4.61-2.23a.57.57,0,0,1,0-1l3.66-1.81a1.64,1.64,0,0,1,1.45,0l3.91,2A.57.57,0,0,1,179.94,160.82Z"/><path class="cls-14" d="M186.19,157v1.21a.51.51,0,0,1-.28.45l-3.89,2a.68.68,0,0,1-.62,0l-4.64-2.43a.42.42,0,0,1-.23-.37v-1Z"/><path class="cls-15" d="M185.88,157.47,182,159.53a.58.58,0,0,1-.5,0l-4.61-2.22a.57.57,0,0,1,0-1l3.66-1.81a1.61,1.61,0,0,1,1.45,0l3.92,2A.57.57,0,0,1,185.88,157.47Z"/><path class="cls-14" d="M192.38,153.79V155a.51.51,0,0,1-.28.45l-3.89,2a.7.7,0,0,1-.63,0L183,155a.44.44,0,0,1-.23-.38v-1Z"/><path class="cls-15" d="M192.06,154.3l-3.9,2a.58.58,0,0,1-.5,0l-4.61-2.22a.57.57,0,0,1,0-1l3.66-1.81a1.61,1.61,0,0,1,1.45,0l3.91,2A.58.58,0,0,1,192.06,154.3Z"/><path class="cls-14" d="M198.46,150.61v1.2a.51.51,0,0,1-.28.45l-3.89,2a.7.7,0,0,1-.63,0L189,151.81a.42.42,0,0,1-.23-.38v-1Z"/><path class="cls-15" d="M198.14,151.12l-3.91,2a.53.53,0,0,1-.49,0L189.13,151a.57.57,0,0,1,0-1l3.67-1.81a1.64,1.64,0,0,1,1.45,0l3.91,2A.57.57,0,0,1,198.14,151.12Z"/><path class="cls-14" d="M204.83,147.47v1.2a.5.5,0,0,1-.28.45l-3.89,2a.68.68,0,0,1-.62,0l-4.64-2.42a.43.43,0,0,1-.23-.38v-1Z"/><path class="cls-15" d="M204.52,148,200.61,150a.58.58,0,0,1-.5,0l-4.61-2.22a.57.57,0,0,1,0-1l3.67-1.81a1.62,1.62,0,0,1,1.44,0l3.92,2A.57.57,0,0,1,204.52,148Z"/><path class="cls-14" d="M211.05,144.29v1.2a.49.49,0,0,1-.27.45l-3.89,2a.67.67,0,0,1-.63,0l-4.64-2.42a.43.43,0,0,1-.23-.38v-1Z"/><path class="cls-15" d="M210.74,144.8l-3.91,2.06a.56.56,0,0,1-.49,0l-4.61-2.23a.57.57,0,0,1,0-1l3.67-1.81a1.64,1.64,0,0,1,1.45,0l3.91,2A.57.57,0,0,1,210.74,144.8Z"/><path class="cls-14" d="M217.48,141.21v1.2a.51.51,0,0,1-.28.45l-3.89,2a.7.7,0,0,1-.63,0l-4.63-2.42a.44.44,0,0,1-.23-.38v-1Z"/><path class="cls-15" d="M217.16,141.72l-3.9,2.05a.55.55,0,0,1-.5,0l-4.61-2.22a.57.57,0,0,1,0-1l3.66-1.81a1.64,1.64,0,0,1,1.45,0l3.91,2A.57.57,0,0,1,217.16,141.72Z"/><path class="cls-14" d="M223.85,138v1.2a.5.5,0,0,1-.28.45l-3.89,2a.67.67,0,0,1-.63,0l-4.63-2.42a.43.43,0,0,1-.23-.38v-1Z"/><path class="cls-15" d="M223.53,138.52l-3.9,2.06a.58.58,0,0,1-.5,0l-4.61-2.23a.57.57,0,0,1,0-1l3.66-1.81a1.64,1.64,0,0,1,1.45,0l3.91,2A.57.57,0,0,1,223.53,138.52Z"/><path class="cls-14" d="M136.32,182.44v1.21a.5.5,0,0,1-.27.45l-3.89,2a.7.7,0,0,1-.63,0l-4.64-2.43a.43.43,0,0,1-.23-.38v-1Z"/><path class="cls-15" d="M136,183,132.1,185a.56.56,0,0,1-.49,0L127,182.8a.58.58,0,0,1,0-1l3.67-1.81a1.64,1.64,0,0,1,1.45,0l3.91,2A.57.57,0,0,1,136,183Z"/><path class="cls-14" d="M92.86,211.2v1.2a.5.5,0,0,1-.28.45l-3.89,2a.67.67,0,0,1-.63,0l-4.63-2.42a.43.43,0,0,1-.23-.38v-1Z"/><path class="cls-15" d="M92.54,211.71l-3.9,2.06a.58.58,0,0,1-.5,0l-4.61-2.23a.57.57,0,0,1,0-1l3.66-1.81a1.64,1.64,0,0,1,1.45,0l3.91,2A.57.57,0,0,1,92.54,211.71Z"/><path class="cls-14" d="M99.05,208v1.21a.51.51,0,0,1-.28.45l-3.89,2a.7.7,0,0,1-.63,0l-4.63-2.43a.41.41,0,0,1-.23-.38v-1Z"/><path class="cls-15" d="M98.73,208.53l-3.91,2.06a.56.56,0,0,1-.49,0l-4.61-2.22a.58.58,0,0,1,0-1l3.67-1.81a1.64,1.64,0,0,1,1.45,0l3.91,2A.57.57,0,0,1,98.73,208.53Z"/><path class="cls-14" d="M105.12,204.84v1.21a.5.5,0,0,1-.27.45l-3.89,2a.7.7,0,0,1-.63,0l-4.64-2.42a.44.44,0,0,1-.23-.38v-1Z"/><path class="cls-15" d="M104.81,205.35l-3.91,2.06a.58.58,0,0,1-.5,0l-4.6-2.22a.57.57,0,0,1,0-1l3.67-1.81a1.61,1.61,0,0,1,1.45,0l3.91,2A.57.57,0,0,1,104.81,205.35Z"/><path class="cls-14" d="M111.5,201.71v1.2a.51.51,0,0,1-.28.45l-3.89,2a.7.7,0,0,1-.63,0l-4.63-2.42a.44.44,0,0,1-.23-.38v-1Z"/><path class="cls-15" d="M111.18,202.22l-3.9,2.05a.55.55,0,0,1-.5,0l-4.61-2.22a.57.57,0,0,1,0-1l3.66-1.81a1.61,1.61,0,0,1,1.45,0l3.91,2A.57.57,0,0,1,111.18,202.22Z"/><path class="cls-14" d="M117.72,198.53v1.2a.5.5,0,0,1-.28.45l-3.89,2a.65.65,0,0,1-.62,0l-4.64-2.42a.43.43,0,0,1-.23-.38v-1Z"/><path class="cls-15" d="M117.41,199l-3.91,2.06a.58.58,0,0,1-.5,0l-4.61-2.22a.57.57,0,0,1,0-1l3.67-1.81a1.59,1.59,0,0,1,1.44,0l3.92,2A.57.57,0,0,1,117.41,199Z"/><path class="cls-14" d="M124.15,195.45v1.2a.51.51,0,0,1-.28.45l-3.89,2a.7.7,0,0,1-.63,0l-4.63-2.42a.44.44,0,0,1-.23-.38v-1Z"/><path class="cls-15" d="M123.83,196l-3.91,2a.56.56,0,0,1-.49,0l-4.61-2.22a.57.57,0,0,1,0-1l3.66-1.81a1.61,1.61,0,0,1,1.45,0l3.91,2A.58.58,0,0,1,123.83,196Z"/><path class="cls-14" d="M130.52,192.25v1.2a.51.51,0,0,1-.28.45l-3.89,2a.7.7,0,0,1-.63,0l-4.63-2.42a.44.44,0,0,1-.23-.38v-1Z"/><path class="cls-15" d="M130.2,192.76l-3.91,2.06a.56.56,0,0,1-.49,0l-4.61-2.22a.57.57,0,0,1,0-1l3.66-1.81a1.61,1.61,0,0,1,1.45,0l3.91,2A.57.57,0,0,1,130.2,192.76Z"/><path class="cls-14" d="M86.58,214.38v1.2a.49.49,0,0,1-.27.45l-3.89,2a.67.67,0,0,1-.63,0l-4.64-2.42a.43.43,0,0,1-.23-.38v-1Z"/><path class="cls-15" d="M86.27,214.89,82.36,217a.58.58,0,0,1-.5,0l-4.61-2.23a.57.57,0,0,1,0-1l3.67-1.81a1.62,1.62,0,0,1,1.44,0l3.92,2A.57.57,0,0,1,86.27,214.89Z"/><path class="cls-14" d="M136.78,189.09v1.2a.5.5,0,0,1-.28.45l-3.89,2a.7.7,0,0,1-.63,0l-4.63-2.42a.43.43,0,0,1-.23-.38v-1Z"/><path class="cls-15" d="M136.46,189.6l-3.9,2.06a.58.58,0,0,1-.5,0l-4.61-2.22a.57.57,0,0,1,0-1l3.66-1.81a1.61,1.61,0,0,1,1.45,0l3.92,2A.57.57,0,0,1,136.46,189.6Z"/><path class="cls-14" d="M149.33,182.7v1.2a.5.5,0,0,1-.28.45l-3.89,2a.68.68,0,0,1-.62,0l-4.64-2.42a.43.43,0,0,1-.23-.38v-1Z"/><path class="cls-15" d="M149,183.21l-3.9,2.06a.58.58,0,0,1-.5,0L140,183.05a.57.57,0,0,1,0-1l3.66-1.81a1.64,1.64,0,0,1,1.45,0l3.92,2A.57.57,0,0,1,149,183.21Z"/><path class="cls-14" d="M155.52,179.52v1.2a.5.5,0,0,1-.28.45l-3.89,2a.67.67,0,0,1-.63,0l-4.63-2.42a.43.43,0,0,1-.23-.38v-1Z"/><path class="cls-15" d="M155.2,180l-3.9,2.06a.58.58,0,0,1-.5,0l-4.61-2.23a.57.57,0,0,1,0-1l3.66-1.81a1.64,1.64,0,0,1,1.45,0l3.91,2A.57.57,0,0,1,155.2,180Z"/><path class="cls-14" d="M161.59,176.34v1.2a.51.51,0,0,1-.27.46l-3.89,2a.7.7,0,0,1-.63,0l-4.63-2.43a.41.41,0,0,1-.23-.38v-1Z"/><path class="cls-15" d="M161.28,176.85l-3.91,2.06a.56.56,0,0,1-.49,0l-4.61-2.22a.58.58,0,0,1,0-1l3.67-1.81a1.64,1.64,0,0,1,1.45,0l3.91,2A.57.57,0,0,1,161.28,176.85Z"/><path class="cls-14" d="M168,173.2v1.21a.51.51,0,0,1-.28.45l-3.89,2a.68.68,0,0,1-.62,0l-4.64-2.42a.44.44,0,0,1-.23-.38v-1Z"/><path class="cls-15" d="M167.66,173.71l-3.91,2.06a.58.58,0,0,1-.5,0l-4.61-2.22a.57.57,0,0,1,0-1l3.66-1.81a1.61,1.61,0,0,1,1.45,0l3.92,2A.58.58,0,0,1,167.66,173.71Z"/><path class="cls-14" d="M174.19,170v1.2a.5.5,0,0,1-.27.45l-3.89,2a.7.7,0,0,1-.63,0l-4.64-2.42a.44.44,0,0,1-.23-.38v-1Z"/><path class="cls-15" d="M173.88,170.54,170,172.59a.56.56,0,0,1-.49,0l-4.61-2.22a.57.57,0,0,1,0-1l3.67-1.81a1.61,1.61,0,0,1,1.45,0l3.91,2A.57.57,0,0,1,173.88,170.54Z"/><path class="cls-14" d="M180.62,166.94v1.21a.51.51,0,0,1-.28.45l-3.89,2a.7.7,0,0,1-.63,0l-4.63-2.43a.43.43,0,0,1-.23-.38v-1Z"/><path class="cls-15" d="M180.3,167.45l-3.9,2.06a.58.58,0,0,1-.5,0l-4.61-2.22a.58.58,0,0,1,0-1l3.66-1.81a1.64,1.64,0,0,1,1.45,0l3.91,2A.57.57,0,0,1,180.3,167.45Z"/><path class="cls-14" d="M187,163.75V165a.51.51,0,0,1-.28.45l-3.89,2a.7.7,0,0,1-.63,0L177.56,165a.44.44,0,0,1-.23-.38v-1Z"/><path class="cls-15" d="M186.67,164.26l-3.9,2.05a.58.58,0,0,1-.5,0l-4.61-2.22a.57.57,0,0,1,0-1l3.66-1.81a1.61,1.61,0,0,1,1.45,0l3.91,2A.57.57,0,0,1,186.67,164.26Z"/><path class="cls-14" d="M192.92,160.4v1.2a.5.5,0,0,1-.28.45l-3.89,2a.68.68,0,0,1-.62,0l-4.64-2.42a.43.43,0,0,1-.23-.38v-1Z"/><path class="cls-15" d="M192.61,160.91,188.7,163a.58.58,0,0,1-.5,0l-4.61-2.22a.57.57,0,0,1,0-1l3.67-1.81a1.62,1.62,0,0,1,1.44,0l3.92,2A.57.57,0,0,1,192.61,160.91Z"/><path class="cls-14" d="M199.11,157.22v1.2a.5.5,0,0,1-.28.45l-3.89,2a.67.67,0,0,1-.63,0l-4.63-2.42a.43.43,0,0,1-.23-.38v-1Z"/><path class="cls-15" d="M198.79,157.73l-3.9,2.06a.58.58,0,0,1-.5,0l-4.61-2.23a.57.57,0,0,1,0-1l3.66-1.81a1.64,1.64,0,0,1,1.45,0l3.91,2A.57.57,0,0,1,198.79,157.73Z"/><path class="cls-14" d="M205.19,154v1.2a.53.53,0,0,1-.28.46l-3.89,2a.7.7,0,0,1-.63,0l-4.63-2.43a.43.43,0,0,1-.23-.38v-1Z"/><path class="cls-15" d="M204.87,154.55,201,156.61a.56.56,0,0,1-.49,0l-4.61-2.23a.57.57,0,0,1,0-1l3.66-1.81a1.64,1.64,0,0,1,1.45,0l3.91,2A.57.57,0,0,1,204.87,154.55Z"/><path class="cls-14" d="M211.56,150.9v1.21a.51.51,0,0,1-.28.45l-3.89,2a.68.68,0,0,1-.62,0l-4.64-2.43a.41.41,0,0,1-.23-.37v-1Z"/><path class="cls-15" d="M211.25,151.41l-3.91,2.06a.58.58,0,0,1-.5,0l-4.61-2.22a.57.57,0,0,1,0-1l3.67-1.81a1.59,1.59,0,0,1,1.44,0l3.92,2A.57.57,0,0,1,211.25,151.41Z"/><path class="cls-14" d="M217.78,147.73v1.2a.5.5,0,0,1-.27.45l-3.89,2a.7.7,0,0,1-.63,0l-4.64-2.42a.43.43,0,0,1-.22-.38v-1Z"/><path class="cls-15" d="M217.47,148.24l-3.91,2a.56.56,0,0,1-.49,0l-4.61-2.22a.57.57,0,0,1,0-1l3.67-1.81a1.61,1.61,0,0,1,1.45,0l3.91,2A.57.57,0,0,1,217.47,148.24Z"/><path class="cls-14" d="M224.21,144.64v1.2a.52.52,0,0,1-.28.46l-3.89,2a.7.7,0,0,1-.63,0l-4.63-2.43a.43.43,0,0,1-.23-.38v-1Z"/><path class="cls-15" d="M223.89,145.15l-3.9,2.06a.58.58,0,0,1-.5,0L214.88,145a.58.58,0,0,1,0-1l3.66-1.81a1.64,1.64,0,0,1,1.45,0l3.92,2A.57.57,0,0,1,223.89,145.15Z"/><path class="cls-14" d="M230.58,141.45v1.2a.51.51,0,0,1-.28.45l-3.89,2a.7.7,0,0,1-.63,0l-4.63-2.42a.44.44,0,0,1-.23-.38v-1Z"/><path class="cls-15" d="M230.26,142l-3.9,2a.58.58,0,0,1-.5,0l-4.61-2.22a.57.57,0,0,1,0-1L224.9,139a1.61,1.61,0,0,1,1.45,0l3.91,2A.58.58,0,0,1,230.26,142Z"/><path class="cls-14" d="M143.05,185.88v1.2a.5.5,0,0,1-.27.45l-3.89,2a.7.7,0,0,1-.63,0l-4.64-2.42a.43.43,0,0,1-.22-.38v-1Z"/><path class="cls-15" d="M142.74,186.39l-3.91,2.06a.56.56,0,0,1-.49,0l-4.61-2.22a.57.57,0,0,1,0-1l3.67-1.81a1.61,1.61,0,0,1,1.45,0l3.91,2A.57.57,0,0,1,142.74,186.39Z"/><path class="cls-14" d="M99.63,214.64v1.21a.5.5,0,0,1-.27.45l-3.89,2a.7.7,0,0,1-.63,0l-4.63-2.43a.4.4,0,0,1-.23-.37v-1Z"/><path class="cls-15" d="M99.32,215.15l-3.91,2.06a.56.56,0,0,1-.49,0L90.31,215a.58.58,0,0,1,0-1l3.67-1.8a1.61,1.61,0,0,1,1.45,0l3.91,2A.57.57,0,0,1,99.32,215.15Z"/><path class="cls-14" d="M105.82,211.47v1.2a.5.5,0,0,1-.27.45l-3.9,2a.68.68,0,0,1-.62,0l-4.64-2.42a.44.44,0,0,1-.23-.38v-1Z"/><path class="cls-15" d="M105.51,212,101.6,214a.58.58,0,0,1-.5,0l-4.61-2.22a.57.57,0,0,1,0-1l3.67-1.81a1.59,1.59,0,0,1,1.44,0l3.92,2A.58.58,0,0,1,105.51,212Z"/><path class="cls-14" d="M111.9,208.29v1.2a.51.51,0,0,1-.28.45l-3.89,2a.68.68,0,0,1-.62,0l-4.64-2.42a.44.44,0,0,1-.23-.38v-1Z"/><path class="cls-15" d="M111.59,208.8l-3.91,2a.55.55,0,0,1-.5,0l-4.61-2.22a.57.57,0,0,1,0-1l3.66-1.81a1.61,1.61,0,0,1,1.45,0l3.92,2A.58.58,0,0,1,111.59,208.8Z"/><path class="cls-14" d="M118.27,205.15v1.2a.49.49,0,0,1-.27.45l-3.89,2a.7.7,0,0,1-.63,0l-4.63-2.42a.41.41,0,0,1-.23-.38v-1Z"/><path class="cls-15" d="M118,205.66l-3.91,2.06a.56.56,0,0,1-.49,0L109,205.5a.57.57,0,0,1,0-1l3.67-1.81a1.61,1.61,0,0,1,1.45,0l3.91,2A.57.57,0,0,1,118,205.66Z"/><path class="cls-14" d="M124.5,202v1.2a.5.5,0,0,1-.28.45l-3.89,2a.67.67,0,0,1-.63,0l-4.63-2.42a.43.43,0,0,1-.23-.38v-1Z"/><path class="cls-15" d="M124.18,202.48l-3.9,2.06a.58.58,0,0,1-.5,0l-4.61-2.23a.57.57,0,0,1,0-1l3.66-1.81a1.64,1.64,0,0,1,1.45,0l3.91,2A.57.57,0,0,1,124.18,202.48Z"/><path class="cls-14" d="M130.92,198.89v1.2a.5.5,0,0,1-.27.45l-3.89,2a.7.7,0,0,1-.63,0l-4.64-2.42a.44.44,0,0,1-.23-.38v-1Z"/><path class="cls-15" d="M130.61,199.4l-3.91,2a.53.53,0,0,1-.49,0l-4.61-2.22a.57.57,0,0,1,0-1l3.67-1.81a1.61,1.61,0,0,1,1.45,0l3.91,2A.57.57,0,0,1,130.61,199.4Z"/><path class="cls-14" d="M200,163.85v1.2a.5.5,0,0,1-.28.45L133,199.34a.68.68,0,0,1-.62,0l-4.64-2.42a.43.43,0,0,1-.23-.38v-1Z"/><path class="cls-15" d="M199.69,164.52l-66.78,33.76a.58.58,0,0,1-.5,0l-4.61-2.22a.57.57,0,0,1,0-1l66.54-33.51a1.62,1.62,0,0,1,1.44,0l3.92,2A.57.57,0,0,1,199.69,164.52Z"/><path class="cls-14" d="M93.36,217.82V219a.53.53,0,0,1-.28.46l-3.89,2a.67.67,0,0,1-.63,0L83.93,219a.43.43,0,0,1-.23-.38v-1Z"/><path class="cls-15" d="M93,218.33l-3.9,2.06a.58.58,0,0,1-.5,0L84,218.17a.57.57,0,0,1,0-1l3.66-1.81a1.64,1.64,0,0,1,1.45,0l3.92,2A.57.57,0,0,1,93,218.33Z"/><path class="cls-14" d="M205.89,160.66v1.2a.52.52,0,0,1-.28.46l-3.89,2a.7.7,0,0,1-.63,0l-4.63-2.43a.41.41,0,0,1-.23-.38v-1Z"/><path class="cls-15" d="M205.57,161.17l-3.91,2.06a.56.56,0,0,1-.49,0L196.56,161a.57.57,0,0,1,0-1l3.67-1.81a1.64,1.64,0,0,1,1.45,0l3.91,2A.57.57,0,0,1,205.57,161.17Z"/><path class="cls-14" d="M212,157.48v1.21a.5.5,0,0,1-.27.45l-3.89,2a.7.7,0,0,1-.63,0l-4.64-2.43a.42.42,0,0,1-.23-.37v-1Z"/><path class="cls-15" d="M211.65,158l-3.91,2.06a.58.58,0,0,1-.5,0l-4.6-2.22a.57.57,0,0,1,0-1l3.67-1.81a1.61,1.61,0,0,1,1.45,0l3.91,2A.57.57,0,0,1,211.65,158Z"/><path class="cls-14" d="M218.34,154.35v1.2a.51.51,0,0,1-.28.45l-3.89,2a.7.7,0,0,1-.63,0l-4.63-2.42a.44.44,0,0,1-.23-.38v-1Z"/><path class="cls-15" d="M218,154.86l-3.9,2a.58.58,0,0,1-.5,0L209,154.7a.57.57,0,0,1,0-1l3.66-1.81a1.61,1.61,0,0,1,1.45,0l3.91,2A.57.57,0,0,1,218,154.86Z"/><path class="cls-14" d="M224.56,151.17v1.2a.51.51,0,0,1-.28.45l-3.89,2a.68.68,0,0,1-.62,0l-4.64-2.42a.44.44,0,0,1-.23-.38v-1Z"/><path class="cls-15" d="M224.25,151.68l-3.91,2.06a.58.58,0,0,1-.5,0l-4.61-2.22a.57.57,0,0,1,0-1l3.67-1.81a1.62,1.62,0,0,1,1.44,0l3.92,2A.57.57,0,0,1,224.25,151.68Z"/><path class="cls-14" d="M231,148.08v1.21a.51.51,0,0,1-.28.45l-3.89,2a.7.7,0,0,1-.63,0l-4.63-2.43a.41.41,0,0,1-.23-.37v-1Z"/><path class="cls-15" d="M230.67,148.59l-3.91,2.06a.56.56,0,0,1-.49,0l-4.61-2.22a.57.57,0,0,1,0-1l3.66-1.81a1.61,1.61,0,0,1,1.45,0l3.91,2A.57.57,0,0,1,230.67,148.59Z"/><path class="cls-14" d="M237.36,144.89v1.2a.51.51,0,0,1-.28.45l-3.89,2a.7.7,0,0,1-.63,0l-4.63-2.42a.44.44,0,0,1-.23-.38v-1Z"/><path class="cls-15" d="M237,145.4l-3.91,2a.53.53,0,0,1-.49,0L228,145.24a.57.57,0,0,1,0-1l3.66-1.81a1.64,1.64,0,0,1,1.45,0l3.91,2A.57.57,0,0,1,237,145.4Z"/><path class="cls-14" d="M60.14,207.08v1.21a.5.5,0,0,1-.27.45l-3.89,2a.7.7,0,0,1-.63,0l-4.63-2.42a.42.42,0,0,1-.23-.38v-1Z"/><path class="cls-15" d="M59.83,207.59l-3.91,2.06a.56.56,0,0,1-.49,0l-4.61-2.22a.57.57,0,0,1,0-1l3.67-1.81a1.61,1.61,0,0,1,1.45,0l3.91,2A.57.57,0,0,1,59.83,207.59Z"/><path class="cls-14" d="M66.54,210.6v1.2a.5.5,0,0,1-.27.45l-3.89,2a.7.7,0,0,1-.63,0l-4.64-2.42a.44.44,0,0,1-.23-.38v-1Z"/><path class="cls-15" d="M66.23,211.11l-3.91,2.06a.56.56,0,0,1-.49,0L57.22,211a.57.57,0,0,1,0-1l3.67-1.81a1.64,1.64,0,0,1,1.45,0l3.91,2A.57.57,0,0,1,66.23,211.11Z"/><path class="cls-14" d="M73.13,213.91v1.2a.51.51,0,0,1-.28.45l-3.89,2a.68.68,0,0,1-.62,0l-4.64-2.42a.44.44,0,0,1-.23-.38v-1Z"/><path class="cls-15" d="M72.82,214.42l-3.91,2.05a.55.55,0,0,1-.5,0l-4.61-2.22a.57.57,0,0,1,0-1l3.67-1.81a1.59,1.59,0,0,1,1.44,0l3.92,2A.57.57,0,0,1,72.82,214.42Z"/><path class="cls-14" d="M79.77,217.31v1.2a.5.5,0,0,1-.28.45l-3.89,2a.67.67,0,0,1-.63,0l-4.63-2.42a.41.41,0,0,1-.23-.38v-1Z"/><path class="cls-15" d="M79.45,217.82l-3.91,2.06a.56.56,0,0,1-.49,0l-4.61-2.22a.57.57,0,0,1,0-1l3.67-1.81a1.61,1.61,0,0,1,1.45,0l3.91,2A.57.57,0,0,1,79.45,217.82Z"/><path class="cls-14" d="M86.13,221v1.21a.51.51,0,0,1-.28.45l-3.89,2a.7.7,0,0,1-.63,0l-4.63-2.43a.42.42,0,0,1-.23-.37v-1Z"/><path class="cls-15" d="M85.81,221.5l-3.9,2.06a.58.58,0,0,1-.5,0l-4.61-2.22a.57.57,0,0,1,0-1l3.66-1.81a1.61,1.61,0,0,1,1.45,0l3.91,2A.57.57,0,0,1,85.81,221.5Z"/><path class="cls-16" d="M246.84,190a1.42,1.42,0,0,0-.18-1.37,5,5,0,0,0-1.65-1.14l-38.78-19.57-.82-.44-70.84,35.49a1.4,1.4,0,0,1,.46-1.46c.75-.4,67.8-33.93,67.8-33.93a4.51,4.51,0,0,1,4.88.05l39.14,20.17A1.28,1.28,0,0,1,246.84,190Z"/><rect class="cls-17" x="14.52" y="205.46" width="7.36" height="2.32" rx="0.26" transform="translate(-61.69 398.04) rotate(-152.31)"/><rect class="cls-17" x="23.73" y="210.3" width="7.36" height="2.32" rx="0.26" transform="translate(-46.57 411.43) rotate(-152.31)"/><rect class="cls-17" x="32.81" y="213.99" width="2.32" height="2.32" rx="0.26" transform="translate(-35.92 421.45) rotate(-152.31)"/><polygon class="cls-11" points="158.55 32.2 158.55 104.71 39.35 164.75 39.35 91.66 158.55 32.2"/><path class="cls-18" d="M320,265.86l-60.09,31.75a10.85,10.85,0,0,1-10,.09l-29.15-14.76a2.52,2.52,0,0,1,0-4.51l62.71-31a8.56,8.56,0,0,1,7.7.06L320,262.29A2,2,0,0,1,320,265.86Z"/><path class="cls-19" d="M320,263.91l-60.09,31.76a10.85,10.85,0,0,1-10,.08L220.76,281a2.52,2.52,0,0,1,0-4.51l62.71-31a8.53,8.53,0,0,1,7.7.07L320,260.35A2,2,0,0,1,320,263.91Z"/><path class="cls-18" d="M316,261.23a.92.92,0,0,1,0,1.63L258,293.77a5.41,5.41,0,0,1-4.82,0l-29.73-14.32a1.06,1.06,0,0,1,0-1.9l61.1-30a4.61,4.61,0,0,1,4.17,0Z"/><path class="cls-11" d="M311.18,263,307,265.12a1.41,1.41,0,0,1-1.31,0l-3.79-1.95a.55.55,0,0,1,0-1l4.21-2.16a1,1,0,0,1,1,0l4.05,1.93A.55.55,0,0,1,311.18,263Z"/><path class="cls-20" d="M304.28,259.7l-4.14,2.18a1.41,1.41,0,0,1-1.31,0L295,259.94a.55.55,0,0,1,0-1l4.2-2.16a1.1,1.1,0,0,1,1,0l4.05,1.93A.55.55,0,0,1,304.28,259.7Z"/><path class="cls-21" d="M297.43,256.19l-4.13,2.18a1.44,1.44,0,0,1-1.31,0l-3.79-1.95a.54.54,0,0,1,0-1l4.2-2.16a1.1,1.1,0,0,1,1,0l4,1.93A.55.55,0,0,1,297.43,256.19Z"/><path class="cls-22" d="M290.53,253l-4.14,2.17a1.41,1.41,0,0,1-1.31,0l-3.79-1.95a.56.56,0,0,1,0-1l4.21-2.15a1.07,1.07,0,0,1,1,0l4,1.94A.55.55,0,0,1,290.53,253Z"/><path class="cls-23" d="M302.82,266.68l-4.14,2.17a1.41,1.41,0,0,1-1.31,0l-3.79-1.95a.56.56,0,0,1,0-1l4.21-2.15a1,1,0,0,1,1,0l4.05,1.94A.55.55,0,0,1,302.82,266.68Z"/><path class="cls-24" d="M295.92,263.43l-4.14,2.17a1.41,1.41,0,0,1-1.31,0l-3.79-1.95a.54.54,0,0,1,0-1l4.2-2.16a1.07,1.07,0,0,1,1,0l4,1.93A.55.55,0,0,1,295.92,263.43Z"/><path class="cls-25" d="M289.07,259.92l-4.13,2.17a1.41,1.41,0,0,1-1.31,0l-3.79-2a.54.54,0,0,1,0-1L284,257a1.1,1.1,0,0,1,1,0l4,1.94A.55.55,0,0,1,289.07,259.92Z"/><path class="cls-11" d="M282.17,256.67,278,258.85a1.44,1.44,0,0,1-1.31,0l-3.79-1.94a.56.56,0,0,1,0-1l4.21-2.16a1.1,1.1,0,0,1,1,0l4,1.93A.55.55,0,0,1,282.17,256.67Z"/><path class="cls-26" d="M295.13,270.29,291,272.46a1.41,1.41,0,0,1-1.31,0l-3.79-2a.54.54,0,0,1,0-1l4.2-2.16a1.1,1.1,0,0,1,1,0l4,1.94A.55.55,0,0,1,295.13,270.29Z"/><path class="cls-27" d="M288.23,267l-4.13,2.18a1.44,1.44,0,0,1-1.31,0l-3.8-1.94a.56.56,0,0,1,0-1l4.21-2.16a1.1,1.1,0,0,1,1,0l4,1.93A.55.55,0,0,1,288.23,267Z"/><path class="cls-28" d="M281.39,263.53l-4.14,2.18a1.44,1.44,0,0,1-1.31,0l-3.79-1.95a.54.54,0,0,1,0-1l4.21-2.16a1.08,1.08,0,0,1,1,0l4.05,1.93A.55.55,0,0,1,281.39,263.53Z"/><path class="cls-29" d="M274.49,260.28l-4.14,2.18a1.44,1.44,0,0,1-1.31,0l-3.79-2a.55.55,0,0,1,0-1l4.2-2.16a1.1,1.1,0,0,1,1,0l4.05,1.94A.55.55,0,0,1,274.49,260.28Z"/><polygon class="cls-30" points="257.47 290.43 256.89 292.57 227.11 277.75 230.37 276.77 257.47 290.43"/><path class="cls-31" d="M260.22,288.09l-4.14,2.17a1.41,1.41,0,0,1-1.31,0L251,288.32a.54.54,0,0,1,0-1l4.2-2.16a1.07,1.07,0,0,1,1,0l4.05,1.93A.55.55,0,0,1,260.22,288.09Z"/><path class="cls-32" d="M253.31,284.84,249.18,287a1.41,1.41,0,0,1-1.31,0l-3.79-1.94a.55.55,0,0,1,0-1l4.2-2.16a1.1,1.1,0,0,1,1,0l4,1.93A.55.55,0,0,1,253.31,284.84Z"/><path class="cls-33" d="M246.47,281.33l-4.14,2.18a1.44,1.44,0,0,1-1.31,0l-3.79-1.94a.56.56,0,0,1,0-1l4.21-2.16a1.1,1.1,0,0,1,1,0l4,1.93A.55.55,0,0,1,246.47,281.33Z"/><path class="cls-34" d="M239.57,278.09l-4.14,2.17a1.41,1.41,0,0,1-1.31,0l-3.79-1.95a.54.54,0,0,1,0-1l4.2-2.16a1.1,1.1,0,0,1,1,0l4.05,1.94A.55.55,0,0,1,239.57,278.09Z"/><path class="cls-35" d="M288,274.41l-4.14,2.18a1.44,1.44,0,0,1-1.31,0l-3.79-1.94a.55.55,0,0,1,0-1l4.21-2.16a1.08,1.08,0,0,1,1,0l4.05,1.93A.55.55,0,0,1,288,274.41Z"/><path class="cls-36" d="M281.05,271.17l-4.14,2.17a1.41,1.41,0,0,1-1.31,0l-3.79-2a.55.55,0,0,1,0-1l4.2-2.15a1.1,1.1,0,0,1,1,0l4,1.94A.55.55,0,0,1,281.05,271.17Z"/><path class="cls-37" d="M308.65,257.57h-2.58a2.36,2.36,0,0,1-1.08-.26l-9.8-4.89a2.71,2.71,0,0,1-1.37-1.58l-.26-.76"/><polygon class="cls-38" points="39.35 102.29 39.35 90.16 158.55 30.12 158.55 42.83 39.35 102.29"/><rect class="cls-39" x="23.73" y="210.3" width="7.36" height="2.32" rx="0.26" transform="translate(-46.57 411.43) rotate(-152.31)"/><path class="cls-40" d="M234,288.72l-56.15,31.67a17.45,17.45,0,0,1-16.53.34l-46.78-23.92a11,11,0,0,0-9.67-.19l-32.42,15a10.17,10.17,0,0,1-9.15-.3L8.51,281.44a2.82,2.82,0,0,1,.18-5L40,262.14a2.65,2.65,0,0,0,.15-4.74L4.05,238a2.28,2.28,0,0,1,0-4l17.74-9.15-.49-10.32,5.6-2.8"/><polygon class="cls-15" points="96.15 87.48 96.15 82.88 149.45 55.24 149.45 59.78 96.15 87.48"/><polygon class="cls-15" points="96.15 94.28 96.15 89.67 129.84 72.15 129.84 76.69 96.15 94.28"/><polygon class="cls-15" points="96.15 100.64 96.15 96.04 149.45 68.4 149.45 72.94 96.15 100.64"/><polygon class="cls-15" points="96.15 107.13 96.15 102.52 146.04 76.69 146.04 81.22 96.15 107.13"/><polygon class="cls-15" points="96.15 113.47 96.15 108.86 149.45 81.22 149.45 85.76 96.15 113.47"/><polygon class="cls-15" points="96.15 120.01 96.15 115.41 144.08 90.69 144.08 95.23 96.15 120.01"/><polygon class="cls-15" points="96.15 126.52 96.15 121.91 149.45 94.28 149.45 98.81 96.15 126.52"/><path class="cls-41" d="M74.34,113.27l4.18-.45,4.41,3.88-3.48,4.71-4.18.45,3.5-4.72Z"/><path class="cls-42" d="M69.18,130l-3.2.34,2.83-22.65,3.2-.35Z"/><path class="cls-43" d="M59.34,119.23l4.43,3.87-4.18.45-4.41-3.87L58.67,115l4.17-.45Z"/><circle class="cls-44" cx="152.72" cy="39.3" r="1.52"/><circle class="cls-44" cx="147.33" cy="42.03" r="1.52"/><circle class="cls-44" cx="142.12" cy="44.63" r="1.52"/></g></g></svg>