<svg xmlns="http://www.w3.org/2000/svg" width="100" height="21.391" viewBox="0 0 100 21.391">
  <g id="Groupe_3" data-name="Groupe 3" transform="translate(-84.306 -65.76)">
    <g id="Groupe_1" data-name="Groupe 1" transform="translate(84.306 65.76)">
      <path id="Tracé_1" data-name="Tracé 1" d="M98.053,70.567a1.087,1.087,0,0,1-.4.441,1.07,1.07,0,0,1-.536.128,1.448,1.448,0,0,1-.7-.221q-.388-.221-.916-.49a7.865,7.865,0,0,0-1.235-.491,5.635,5.635,0,0,0-1.67-.22,5.332,5.332,0,0,0-1.515.192A3.3,3.3,0,0,0,90,70.44a2.156,2.156,0,0,0-.661.818,2.489,2.489,0,0,0-.217,1.045,1.721,1.721,0,0,0,.442,1.208,3.677,3.677,0,0,0,1.173.825,11.571,11.571,0,0,0,1.662.611q.931.27,1.9.576a19.273,19.273,0,0,1,1.9.711,6.65,6.65,0,0,1,1.662,1.023,4.668,4.668,0,0,1,1.173,1.515,4.872,4.872,0,0,1,.443,2.175,6.56,6.56,0,0,1-.521,2.61,6.008,6.008,0,0,1-1.522,2.119A7.278,7.278,0,0,1,94.993,87.1a9.763,9.763,0,0,1-3.309.519,11.615,11.615,0,0,1-2.112-.192,11.889,11.889,0,0,1-2-.547,10.723,10.723,0,0,1-1.787-.854,8.66,8.66,0,0,1-1.483-1.109l1.212-1.835a1.52,1.52,0,0,1,.412-.334,1.072,1.072,0,0,1,.536-.135,1.566,1.566,0,0,1,.838.291q.451.291,1.064.647a8.467,8.467,0,0,0,1.445.647,6.043,6.043,0,0,0,2,.292,4.353,4.353,0,0,0,2.764-.775,2.671,2.671,0,0,0,.979-2.226,1.949,1.949,0,0,0-.442-1.323,3.538,3.538,0,0,0-1.173-.86,9.261,9.261,0,0,0-1.662-.59q-.932-.242-1.9-.526a17.231,17.231,0,0,1-1.9-.683,6.173,6.173,0,0,1-1.662-1.038,4.724,4.724,0,0,1-1.173-1.6,5.64,5.64,0,0,1-.442-2.368,5.2,5.2,0,0,1,.489-2.19,5.63,5.63,0,0,1,1.429-1.891A7.2,7.2,0,0,1,89.431,67.1a9.1,9.1,0,0,1,3.123-.5,11.345,11.345,0,0,1,3.666.569,8.435,8.435,0,0,1,2.858,1.593Z" transform="translate(-84.306 -66.227)" fill="#2d2d82"/>
      <path id="Tracé_2" data-name="Tracé 2" d="M130.969,68.112a1.859,1.859,0,0,1-.2.853,2.36,2.36,0,0,1-.536.7,2.624,2.624,0,0,1-1.748.654,2.542,2.542,0,0,1-1.708-.654,2.31,2.31,0,0,1-.521-.7,1.917,1.917,0,0,1-.194-.853,2.042,2.042,0,0,1,.194-.882,2.258,2.258,0,0,1,.521-.711,2.543,2.543,0,0,1,1.708-.655,2.624,2.624,0,0,1,1.748.655,2.3,2.3,0,0,1,.536.711A1.981,1.981,0,0,1,130.969,68.112Zm-.575,4.253v14.6h-3.837v-14.6Z" transform="translate(-109.26 -65.818)" fill="#2d2d82"/>
      <path id="Tracé_3" data-name="Tracé 3" d="M151.387,65.76V86.9H147.55V65.76Z" transform="translate(-122.075 -65.76)" fill="#2d2d82"/>
      <path id="Tracé_4" data-name="Tracé 4" d="M171.708,68.112a1.859,1.859,0,0,1-.2.853,2.352,2.352,0,0,1-.536.7,2.621,2.621,0,0,1-1.747.654,2.545,2.545,0,0,1-1.709-.654,2.31,2.31,0,0,1-.521-.7,1.916,1.916,0,0,1-.194-.853,2.042,2.042,0,0,1,.194-.882,2.258,2.258,0,0,1,.521-.711,2.545,2.545,0,0,1,1.709-.655,2.622,2.622,0,0,1,1.747.655,2.3,2.3,0,0,1,.536.711A1.981,1.981,0,0,1,171.708,68.112Zm-.575,4.253v14.6H167.3v-14.6Z" transform="translate(-133.608 -65.818)" fill="#2d2d82"/>
      <path id="Tracé_5" data-name="Tracé 5" d="M197.585,84.919a1.938,1.938,0,0,1-.334.342.774.774,0,0,1-.474.124,1.054,1.054,0,0,1-.574-.179q-.28-.178-.668-.4a5.047,5.047,0,0,0-.924-.4,4.253,4.253,0,0,0-1.328-.178,4.053,4.053,0,0,0-1.771.365,3.357,3.357,0,0,0-1.266,1.049,4.718,4.718,0,0,0-.754,1.654,8.87,8.87,0,0,0-.249,2.2,8.6,8.6,0,0,0,.272,2.268,4.829,4.829,0,0,0,.785,1.67,3.367,3.367,0,0,0,1.243,1.025,3.764,3.764,0,0,0,1.646.35,4.077,4.077,0,0,0,1.483-.225,4.7,4.7,0,0,0,.955-.5q.388-.272.675-.5a1.019,1.019,0,0,1,.644-.225.779.779,0,0,1,.7.357l1.1,1.4a6.937,6.937,0,0,1-1.382,1.251,7.5,7.5,0,0,1-1.546.808,7.893,7.893,0,0,1-1.654.427,11.807,11.807,0,0,1-1.694.124,7.067,7.067,0,0,1-2.78-.552,6.486,6.486,0,0,1-2.276-1.607,7.749,7.749,0,0,1-1.538-2.586,9.988,9.988,0,0,1-.567-3.487,10.128,10.128,0,0,1,.505-3.254,7.368,7.368,0,0,1,1.483-2.594,6.809,6.809,0,0,1,2.423-1.717,8.36,8.36,0,0,1,3.324-.621,7.9,7.9,0,0,1,3.13.575,7.644,7.644,0,0,1,2.415,1.646Z" transform="translate(-145.076 -76.343)" fill="#37aadc"/>
      <path id="Tracé_6" data-name="Tracé 6" d="M227.941,81.3a8.725,8.725,0,0,1,3.238.575,6.979,6.979,0,0,1,2.478,1.631,7.225,7.225,0,0,1,1.585,2.578,10.674,10.674,0,0,1,0,6.819,7.381,7.381,0,0,1-1.585,2.594,6.882,6.882,0,0,1-2.478,1.647,9.434,9.434,0,0,1-6.485,0A6.945,6.945,0,0,1,222.2,95.5a7.407,7.407,0,0,1-1.6-2.594,10.539,10.539,0,0,1,0-6.819,7.25,7.25,0,0,1,1.6-2.578,7.044,7.044,0,0,1,2.493-1.631A8.789,8.789,0,0,1,227.941,81.3Zm0,13.467a3.373,3.373,0,0,0,2.943-1.336,6.694,6.694,0,0,0,.956-3.914,6.769,6.769,0,0,0-.956-3.93,3.358,3.358,0,0,0-2.943-1.352,3.4,3.4,0,0,0-2.982,1.359,6.739,6.739,0,0,0-.963,3.922,6.661,6.661,0,0,0,.963,3.906A3.419,3.419,0,0,0,227.941,94.767Z" transform="translate(-166.131 -76.343)" fill="#37aadc"/>
      <path id="Tracé_7" data-name="Tracé 7" d="M263.715,97.485V81.548h2.345a.943.943,0,0,1,.979.7l.249,1.181a9.018,9.018,0,0,1,.877-.854,5.681,5.681,0,0,1,.979-.668,5.286,5.286,0,0,1,1.118-.442,4.981,4.981,0,0,1,1.313-.163,3.72,3.72,0,0,1,2.477.815,4.9,4.9,0,0,1,1.452,2.167,4.87,4.87,0,0,1,.932-1.359A5.091,5.091,0,0,1,277.663,82a5.624,5.624,0,0,1,1.422-.528A6.81,6.81,0,0,1,280.6,81.3a6.37,6.37,0,0,1,2.346.4,4.5,4.5,0,0,1,1.724,1.18,5.216,5.216,0,0,1,1.064,1.9,8.255,8.255,0,0,1,.365,2.563V97.485h-3.836V87.342a3.41,3.41,0,0,0-.668-2.291,2.453,2.453,0,0,0-1.957-.769,2.924,2.924,0,0,0-1.1.2,2.6,2.6,0,0,0-.885.582,2.665,2.665,0,0,0-.6.956,3.72,3.72,0,0,0-.217,1.32V97.485h-3.853V87.342a3.473,3.473,0,0,0-.644-2.33,2.4,2.4,0,0,0-1.9-.73,3.071,3.071,0,0,0-1.545.411,5.2,5.2,0,0,0-1.344,1.126V97.485Z" transform="translate(-193.16 -76.343)" fill="#37aadc"/>
    </g>
    <g id="Groupe_2" data-name="Groupe 2" transform="translate(181.574 83.919)">
      <path id="Tracé_8" data-name="Tracé 8" d="M324.318,112.166v.658H323.9v-1.778h.579a1.181,1.181,0,0,1,.329.04.615.615,0,0,1,.222.11.416.416,0,0,1,.125.167.552.552,0,0,1,.039.21.564.564,0,0,1-.023.164.484.484,0,0,1-.069.142.515.515,0,0,1-.112.116.576.576,0,0,1-.153.084.384.384,0,0,1,.077.051.313.313,0,0,1,.063.074l.379.619h-.374a.159.159,0,0,1-.149-.078l-.3-.516a.125.125,0,0,0-.046-.049.151.151,0,0,0-.074-.015Zm0-.284h.166a.426.426,0,0,0,.143-.021.257.257,0,0,0,.1-.059.216.216,0,0,0,.055-.088.347.347,0,0,0,.017-.109.229.229,0,0,0-.076-.183.353.353,0,0,0-.236-.066h-.166Z" transform="translate(-323.905 -111.046)" fill="#35a8e0"/>
    </g>
    <g id="Tracé_9" data-name="Tracé 9" transform="translate(-140.438 -25.642)" fill="none" stroke-miterlimit="10">
      <path d="M320.5,110.5a2.122,2.122,0,1,1,2.122,2.122A2.122,2.122,0,0,1,320.5,110.5Z" stroke="none"/>
      <path d="M 322.6217956542969 108.9750061035156 C 321.7826843261719 108.9750061035156 321.1000061035156 109.6576843261719 321.1000061035156 110.4968032836914 C 321.1000061035156 111.3361740112305 321.7826843261719 112.0190582275391 322.6217956542969 112.0190582275391 C 323.4609069824219 112.0190582275391 324.1435852050781 111.3361740112305 324.1435852050781 110.4968032836914 C 324.1435852050781 109.6576843261719 323.4609069824219 108.9750061035156 322.6217956542969 108.9750061035156 M 322.6217956542969 108.3750076293945 C 323.7938537597656 108.3750076293945 324.7435913085938 109.3247375488281 324.7435913085938 110.4968032836914 C 324.7435913085938 111.6693115234375 323.7938537597656 112.6190567016602 322.6217956542969 112.6190567016602 C 321.4506225585938 112.6190567016602 320.5 111.6693115234375 320.5 110.4968032836914 C 320.5 109.3247375488281 321.4506225585938 108.3750076293945 322.6217956542969 108.3750076293945 Z" stroke="none" fill="#35a8e0"/>
    </g>
  </g>
</svg>
